<?xml version="1.0" encoding="UTF-8"?>
<svg id="Layer_1" data-name="Layer 1" xmlns="http://www.w3.org/2000/svg" version="1.1" viewBox="0 0 658 122">
  <defs>
    <style>
      .cls-1 {
        fill: #b8860b;
      }

      .cls-1, .cls-2, .cls-3 {
        stroke-width: 0px;
      }

      .cls-2 {
        fill: #00008b;
      }

      .cls-3 {
        fill: #fff;
      }
    </style>
  </defs>
  <polygon class="cls-3" points="618 121.72 0 121.72 40 -.28 658 -.28 618 121.72"/>
  <g id="header">
    <g id="text">
      <g>
        <path class="cls-2" d="M191.19,89.76l-1.21-2.53h-3.64l-1.18,2.53c-.12.24-.18.38-.24.5-.06.09-.15.24-.3.38s-.3.26-.5.32c-.18.06-.41.09-.68.09.3-.44.53-.88.74-1.29l4.46-9.5,4.46,9.5c.09.18.21.38.33.62.12.21.24.38.3.5l.12.18c-.5,0-.89-.03-1.24-.09-.33-.06-.59-.18-.77-.32s-.33-.29-.38-.38c-.06-.12-.15-.26-.27-.5ZM188.17,83.38l-1.42,3h2.84l-1.42-3Z"/>
        <path class="cls-2" d="M196.57,83.82v1.62c1-1.12,2.07-1.68,3.13-1.68.35,0,.65.03.92.12.27.09.47.21.62.38.15.18.27.32.35.5.09.15.15.38.18.68s.06.53.06.74v4.8h-1.68v-4.59c0-.15,0-.32-.03-.53,0-.21-.03-.38-.06-.5-.03-.12-.09-.24-.12-.38-.06-.12-.12-.24-.21-.29s-.21-.09-.33-.09c-.27,0-.53.09-.83.26s-.56.38-.8.62c-.24.24-.44.47-.62.74-.18.24-.33.44-.41.62l-.15.26v3.91h-1.66v-7.18h1.63Z"/>
        <path class="cls-2" d="M215.72,89.76l-1.21-2.53h-3.64l-1.18,2.53c-.12.24-.18.38-.24.5-.06.09-.15.24-.3.38s-.3.26-.5.32c-.18.06-.41.09-.68.09.3-.44.53-.88.74-1.29l4.46-9.5,4.46,9.5c.09.18.21.38.33.62.12.21.24.38.3.5l.12.18c-.5,0-.89-.03-1.24-.09-.33-.06-.59-.18-.77-.32s-.33-.29-.38-.38c-.09-.12-.18-.26-.27-.5ZM212.68,83.38l-1.42,3h2.84l-1.42-3Z"/>
        <path class="cls-2" d="M224.65,90.94v-1.62c-1,1.12-2.07,1.68-3.13,1.68-.35,0-.65-.03-.92-.12-.27-.09-.47-.21-.62-.38-.15-.18-.27-.32-.35-.5-.09-.15-.15-.38-.18-.68s-.06-.53-.06-.74v-4.77h1.68v4.59c0,.15,0,.32.03.53,0,.21.03.38.06.5.03.12.09.24.12.38.06.12.12.24.21.29s.21.09.33.09c.27,0,.53-.09.83-.26s.56-.38.8-.62c.24-.24.44-.47.62-.74.18-.24.33-.44.44-.62l.15-.26v-3.88h1.66v7.09h-1.66v.03h0Z"/>
        <path class="cls-2" d="M234.37,90.94h-3.25c-.33,0-.59,0-.8-.03-.21,0-.38-.06-.53-.15s-.27-.18-.33-.26c-.06-.09-.12-.24-.15-.47-.03-.24-.06-.47-.06-.68v-4.71h-1.63v-.82h1.63v-2.12h1.68v2.12h3.1v.79h-3.1v3.56c0,.88.06,1.44.15,1.65s.38.32.89.32h2.42v.79h-.03Z"/>
        <path class="cls-2" d="M236.32,90c-.77-.71-1.15-1.56-1.15-2.59s.38-1.91,1.15-2.59c.77-.71,1.71-1.06,2.87-1.06s2.1.35,2.87,1.06c.77.71,1.15,1.56,1.15,2.59s-.38,1.91-1.15,2.59c-.77.71-1.71,1.06-2.87,1.06-1.12-.03-2.1-.38-2.87-1.06ZM237.59,85.26c-.41.56-.62,1.27-.62,2.12s.21,1.53.62,2.12c.41.56.95.85,1.6.85s1.15-.29,1.6-.85c.41-.56.62-1.27.62-2.12s-.21-1.53-.62-2.12c-.41-.56-.95-.85-1.6-.85s-1.15.29-1.6.85Z"/>
        <path class="cls-2" d="M246.4,83.82v1.62c1-1.12,2.07-1.68,3.13-1.68.35,0,.65.03.92.12.27.09.47.21.62.38.15.18.27.32.35.5.09.15.15.38.18.68s.06.53.06.74v4.8h-1.66v-4.59c0-.15,0-.32-.03-.53,0-.21-.03-.38-.06-.5-.03-.12-.09-.24-.12-.38-.06-.12-.12-.24-.21-.29s-.21-.09-.33-.09c-.27,0-.53.09-.83.26s-.56.38-.8.62c-.24.24-.44.47-.62.74-.18.24-.33.44-.41.62l-.15.26v3.91h-1.66v-7.18h1.6Z"/>
        <path class="cls-2" d="M254.32,90c-.77-.71-1.15-1.56-1.15-2.59s.38-1.91,1.15-2.59c.77-.71,1.71-1.06,2.87-1.06s2.1.35,2.87,1.06c.77.71,1.15,1.56,1.15,2.59s-.38,1.91-1.15,2.59c-.77.71-1.71,1.06-2.87,1.06-1.15-.03-2.1-.38-2.87-1.06ZM255.59,85.26c-.41.56-.62,1.27-.62,2.12s.21,1.53.62,2.12c.41.56.95.85,1.6.85s1.15-.29,1.6-.85c.41-.56.62-1.27.62-2.12s-.21-1.53-.62-2.12c-.41-.56-.95-.85-1.6-.85s-1.18.29-1.6.85Z"/>
        <path class="cls-2" d="M264.4,83.82v1.62c1-1.12,2.07-1.68,3.13-1.68.68,0,1.18.15,1.51.47.33.29.5.74.59,1.29l.06-.06c1-1.12,2.07-1.68,3.13-1.68.35,0,.65.03.92.12.27.09.47.21.62.38.15.18.27.32.35.5.09.15.15.38.18.68s.06.53.06.74v4.8h-1.68v-4.59c0-.15,0-.32-.03-.53s-.03-.38-.06-.5c-.03-.12-.09-.24-.12-.38-.06-.12-.12-.24-.21-.29s-.21-.09-.33-.09c-.33,0-.65.12-1,.35-.35.24-.65.53-.92.85-.27.32-.47.59-.62.82s-.24.38-.3.44v3.91h-1.68v-4.59c0-.15,0-.32-.03-.53,0-.21-.03-.38-.06-.5-.03-.12-.09-.24-.12-.38-.06-.12-.12-.24-.21-.29s-.21-.09-.33-.09c-.27,0-.53.09-.83.26s-.56.38-.8.62c-.24.24-.44.47-.62.74-.18.24-.33.44-.41.62l-.15.26v3.91h-1.74v-7.21h1.68Z"/>
        <path class="cls-2" d="M277.61,90c-.77-.71-1.15-1.56-1.15-2.59s.38-1.91,1.15-2.59c.77-.71,1.71-1.06,2.87-1.06s2.1.35,2.87,1.06c.77.71,1.15,1.56,1.15,2.59s-.38,1.91-1.15,2.59c-.77.71-1.71,1.06-2.87,1.06-1.15-.03-2.1-.38-2.87-1.06ZM278.89,85.26c-.41.56-.62,1.27-.62,2.12s.21,1.53.62,2.12c.41.56.95.85,1.6.85s1.15-.29,1.6-.85c.41-.56.62-1.27.62-2.12s-.21-1.53-.62-2.12c-.41-.56-.95-.85-1.6-.85s-1.18.29-1.6.85Z"/>
        <path class="cls-2" d="M291.27,90.94v-1.62c-1,1.12-2.07,1.68-3.13,1.68-.35,0-.65-.03-.92-.12-.27-.09-.47-.21-.62-.38-.15-.18-.27-.32-.35-.5-.09-.15-.15-.38-.18-.68s-.06-.53-.06-.74v-4.77h1.68v4.59c0,.15,0,.32.03.53,0,.21.03.38.06.5.03.12.09.24.12.38.06.12.12.24.21.29s.21.09.33.09c.27,0,.53-.09.83-.26s.56-.38.8-.62c.24-.24.44-.47.62-.74.18-.24.33-.44.44-.62l.15-.26v-3.88h1.66v7.09h-1.66v.03Z"/>
        <path class="cls-2" d="M297.6,91c-.3,0-.74,0-1.33-.03-.56-.03-1.03-.03-1.36-.03v-.82c.33,0,.77.03,1.33.06s1,.06,1.33.06c.5,0,.95-.09,1.27-.26s.5-.38.5-.62c0-.35-.35-.65-1.03-.91l-2.07-.77c-.53-.18-.92-.47-1.21-.82-.3-.35-.41-.71-.41-1.12,0-.53.24-1,.74-1.38.5-.38,1.18-.59,2.07-.59.3,0,.71,0,1.27.03.53.03.98.03,1.27.03v.82c-1.27-.09-2.1-.12-2.51-.12-.44,0-.8.09-1.06.24-.27.15-.41.32-.41.53,0,.32.3.59.89.82l2.1.77c.59.21,1,.5,1.3.82.3.35.44.74.44,1.12,0,.59-.3,1.09-.86,1.5-.56.47-1.33.68-2.25.68Z"/>
        <path class="cls-2" d="M309.89,82.4v8.53h-1.77v-8.53c0-.24,0-.44.03-.56s.09-.29.21-.47.3-.32.59-.41c.27-.09.65-.12,1.09-.12-.09.56-.15,1.09-.15,1.56Z"/>
        <path class="cls-2" d="M314.21,83.82v1.62c1-1.12,2.07-1.68,3.13-1.68.35,0,.65.03.92.12.27.09.47.21.62.38.15.18.27.32.35.5.09.15.15.38.18.68s.06.53.06.74v4.8h-1.68v-4.59c0-.15,0-.32-.03-.53,0-.21-.03-.38-.06-.5-.03-.12-.09-.24-.12-.38-.06-.12-.12-.24-.21-.29s-.21-.09-.33-.09c-.27,0-.53.09-.83.26s-.56.38-.8.62c-.24.24-.44.47-.62.74-.18.24-.33.44-.41.62l-.15.26v3.91h-1.66v-7.18h1.63Z"/>
        <path class="cls-2" d="M324.11,91c-.3,0-.74,0-1.33-.03-.56-.03-1.03-.03-1.36-.03v-.82c.33,0,.77.03,1.33.06s1,.06,1.33.06c.5,0,.95-.09,1.27-.26s.5-.38.5-.62c0-.35-.35-.65-1.03-.91l-2.07-.77c-.53-.18-.92-.47-1.21-.82-.3-.35-.41-.71-.41-1.12,0-.53.24-1,.74-1.38.5-.38,1.18-.59,2.07-.59.3,0,.71,0,1.27.03.53.03.98.03,1.27.03v.82c-1.27-.09-2.1-.12-2.51-.12-.44,0-.8.09-1.06.24-.27.15-.41.32-.41.53,0,.32.3.59.89.82l2.1.77c.59.21,1,.5,1.3.82s.44.74.44,1.12c0,.59-.3,1.09-.86,1.5-.56.47-1.3.68-2.25.68Z"/>
        <path class="cls-2" d="M334.93,90.94h-3.25c-.33,0-.59,0-.8-.03-.21,0-.38-.06-.53-.15s-.27-.18-.33-.26-.12-.24-.15-.47c-.03-.24-.06-.47-.06-.68v-4.71h-1.63v-.82h1.63v-2.12h1.68v2.12h3.1v.79h-3.1v3.56c0,.88.06,1.44.15,1.65s.38.32.89.32h2.42v.79h-.03Z"/>
        <path class="cls-2" d="M336.55,80.99h1.68v1.38h-1.68v-1.38ZM336.55,83.82h1.68v7.09h-1.68v-7.09Z"/>
        <path class="cls-2" d="M346.57,90.94h-3.25c-.33,0-.59,0-.8-.03-.21,0-.38-.06-.53-.15s-.27-.18-.33-.26-.12-.24-.15-.47c-.03-.24-.06-.47-.06-.68v-4.71h-1.63v-.82h1.63v-2.12h1.68v2.12h3.1v.79h-3.1v3.56c0,.88.06,1.44.15,1.65s.38.32.89.32h2.42l-.03.79h0Z"/>
        <path class="cls-2" d="M353.13,90.94v-1.62c-1,1.12-2.07,1.68-3.13,1.68-.35,0-.65-.03-.92-.12s-.47-.21-.62-.38-.27-.32-.35-.5c-.09-.15-.15-.38-.18-.68s-.06-.53-.06-.74v-4.77h1.68v4.59c0,.15,0,.32.03.53,0,.21.03.38.06.5.03.12.09.24.12.38.06.12.12.24.21.29s.21.09.33.09c.27,0,.53-.09.83-.26s.56-.38.8-.62c.24-.24.44-.47.62-.74.18-.24.33-.44.44-.62l.15-.26v-3.88h1.66v7.09h-1.66v.03Z"/>
        <path class="cls-2" d="M362.86,90.94h-3.25c-.33,0-.59,0-.8-.03-.21,0-.38-.06-.53-.15s-.27-.18-.33-.26-.12-.24-.15-.47c-.03-.24-.06-.47-.06-.68v-4.71h-1.63v-.82h1.63v-2.12h1.68v2.12h3.1v.79h-3.1v3.56c0,.88.06,1.44.15,1.65s.38.32.89.32h2.42l-.03.79h0Z"/>
        <path class="cls-2" d="M364.48,80.99h1.68v1.38h-1.68v-1.38ZM364.48,83.82h1.68v7.09h-1.68v-7.09Z"/>
        <path class="cls-2" d="M369.15,90c-.77-.71-1.15-1.56-1.15-2.59s.38-1.91,1.15-2.59c.77-.71,1.71-1.06,2.87-1.06s2.1.35,2.87,1.06,1.15,1.56,1.15,2.59-.38,1.91-1.15,2.59c-.77.71-1.71,1.06-2.87,1.06-1.15-.03-2.1-.38-2.87-1.06ZM370.39,85.26c-.41.56-.62,1.27-.62,2.12s.21,1.53.62,2.12c.41.56.95.85,1.6.85s1.15-.29,1.6-.85c.41-.56.62-1.27.62-2.12s-.21-1.53-.62-2.12c-.41-.56-.95-.85-1.6-.85s-1.15.29-1.6.85Z"/>
        <path class="cls-2" d="M379.2,83.82v1.62c1-1.12,2.07-1.68,3.13-1.68.35,0,.65.03.92.12s.47.21.62.38c.15.18.27.32.35.5.09.15.15.38.18.68s.06.53.06.74v4.8h-1.68v-4.59c0-.15,0-.32-.03-.53s-.03-.38-.06-.5c-.03-.12-.09-.24-.12-.38s-.12-.24-.21-.29c-.09-.06-.21-.09-.33-.09-.27,0-.53.09-.83.26s-.56.38-.8.62c-.24.24-.44.47-.62.74-.18.24-.33.44-.41.62l-.15.26v3.91h-1.66v-7.18h1.63Z"/>
        <path class="cls-2" d="M386.65,89.53h1.48l-.95,2.97h-.5v-2.97h-.03Z"/>
        <path class="cls-2" d="M399.07,89.7l-1.21-2.53h-3.64l-1.18,2.53c-.12.24-.18.38-.24.5-.06.09-.15.24-.3.38s-.3.26-.5.32-.41.09-.68.09c.3-.44.53-.88.74-1.29l4.46-9.5,4.46,9.5c.09.18.21.38.33.62.12.21.24.38.3.5l.12.18c-.5,0-.89-.03-1.24-.09-.33-.06-.59-.18-.77-.32s-.33-.29-.38-.38c-.09-.12-.18-.26-.27-.5ZM396.02,83.32l-1.42,3h2.84l-1.42-3Z"/>
        <path class="cls-2" d="M405.18,83.35v.41h3.13v.79h-3.13v6.3h-1.66v-6.3h-1.48v-.79h1.48v-.41c0-.41,0-.74.03-1s.06-.47.15-.68c.09-.18.15-.32.24-.41.09-.09.21-.18.41-.21.21-.06.38-.09.56-.09h3.4v.82h-2.36c-.33,0-.53.09-.62.24-.12.12-.15.59-.15,1.32Z"/>
        <path class="cls-2" d="M411.75,83.35v.41h3.13v.79h-3.13v6.3h-1.66v-6.3h-1.48v-.79h1.48v-.41c0-.41,0-.74.03-1s.06-.47.15-.68c.09-.18.15-.32.24-.41.09-.09.21-.18.41-.21.21-.06.38-.09.56-.09h3.4v.82h-2.36c-.33,0-.53.09-.62.24-.12.12-.15.59-.15,1.32Z"/>
        <path class="cls-2" d="M419.84,80.29v10.65l1.45.03v-10.65l-1.45-.03Z"/>
        <path class="cls-2" d="M423.63,80.99h1.68v1.38h-1.68v-1.38ZM423.63,83.82h1.68v7.09h-1.68v-7.09Z"/>
        <path class="cls-2" d="M416.18,80.99h1.68v1.38h-1.68v-1.38ZM416.18,83.82h1.68v7.09h-1.68v-7.09Z"/>
        <path class="cls-2" d="M433.17,90.94v-3.53c-1.68-.15-2.51-.21-2.54-.21-.41,0-.77.15-1.06.47-.3.29-.44.65-.44,1.03,0,.44.15.82.44,1.15s.68.47,1.15.47c.24,0,.83-.06,1.74-.15l.03.79c-1.09.09-1.77.12-2.1.12-.89,0-1.6-.24-2.19-.68s-.86-1-.86-1.65c0-.56.3-1.09.86-1.59s1.27-.74,2.16-.74c.27,0,1.18.09,2.81.26v-.41c0-.44-.18-.82-.53-1.18-.35-.32-.8-.5-1.3-.5-.24,0-.77.03-1.63.06s-1.45.06-1.74.06v-.91c.3,0,.68-.03,1.18-.03s.98-.03,1.39-.03h1.18c.89,0,1.63.21,2.22.62s.89.94.89,1.62v4.97l-1.66-.03h0Z"/>
        <path class="cls-2" d="M442.78,90.94h-3.25c-.33,0-.59,0-.8-.03-.21,0-.38-.06-.53-.15s-.27-.18-.33-.26-.12-.24-.15-.47c-.03-.24-.06-.47-.06-.68v-4.71h-1.63v-.82h1.63v-2.12h1.68v2.12h3.1v.79h-3.1v3.56c0,.88.06,1.44.15,1.65s.38.32.89.32h2.42l-.03.79h0Z"/>
        <path class="cls-2" d="M450.35,88.94l.62.65c-.8.94-1.89,1.41-3.28,1.41-1.09,0-2.04-.35-2.87-1.06-.83-.71-1.24-1.56-1.24-2.53s.38-1.88,1.15-2.59,1.68-1.06,2.78-1.06c.3,0,.74,0,1.33.03s1.12.03,1.63.03v.85c-1.66-.12-2.66-.15-2.99-.15-.53,0-1,.21-1.39.59-.38.41-.62.91-.74,1.56h4.34v.85h-4.4c.03.79.27,1.44.71,1.97.44.53,1,.79,1.66.79,1,0,1.89-.44,2.69-1.35Z"/>
        <path class="cls-2" d="M457.59,80.29h1.66v10.65h-1.66v-6.3h-.56c-.24,0-.44-.03-.65-.03h-.5c-.71,0-1.24.26-1.63.77s-.59,1.15-.59,1.97.21,1.5.62,2.06.95.82,1.63.82h1.06v.74h-1.27c-1.06,0-1.95-.35-2.66-1.03-.71-.71-1.09-1.56-1.09-2.59s.35-1.85,1.09-2.5c.74-.68,1.63-1,2.69-1,.41,0,1.03,0,1.86.03v-3.59Z"/>
        <path class="cls-2" d="M472.46,90.94h-3.25c-.33,0-.59,0-.8-.03-.21,0-.38-.06-.53-.15s-.27-.18-.33-.26-.12-.24-.15-.47c-.03-.24-.06-.47-.06-.68v-4.71h-1.63v-.82h1.63v-2.12h1.68v2.12h3.1v.79h-3.1v3.56c0,.88.06,1.44.15,1.65s.38.32.89.32h2.42l-.03.79h0Z"/>
        <path class="cls-2" d="M474.44,90c-.77-.71-1.15-1.56-1.15-2.59s.38-1.91,1.15-2.59c.77-.71,1.71-1.06,2.87-1.06s2.1.35,2.87,1.06,1.15,1.56,1.15,2.59-.38,1.91-1.15,2.59c-.77.71-1.71,1.06-2.87,1.06-1.15-.03-2.13-.38-2.87-1.06ZM475.68,85.26c-.41.56-.62,1.27-.62,2.12s.21,1.53.62,2.12c.41.56.95.85,1.6.85s1.15-.29,1.6-.85c.41-.56.62-1.27.62-2.12s-.21-1.53-.62-2.12c-.41-.56-.95-.85-1.6-.85s-1.15.29-1.6.85Z"/>
        <path class="cls-2" d="M494.68,89.76l-1.21-2.53h-3.64l-1.18,2.53c-.12.24-.18.38-.24.5-.06.09-.15.24-.3.38s-.3.26-.5.32-.41.09-.68.09c.3-.44.53-.88.74-1.29l4.46-9.5,4.46,9.5c.09.18.21.38.33.62.12.21.24.38.3.5l.12.18c-.5,0-.89-.03-1.24-.09-.33-.06-.59-.18-.77-.32s-.33-.29-.38-.38c-.06-.12-.15-.26-.27-.5ZM491.67,83.38l-1.42,3h2.84l-1.42-3Z"/>
        <path class="cls-2" d="M500.06,83.82v1.62c1-1.12,2.07-1.68,3.13-1.68.35,0,.65.03.92.12s.47.21.62.38c.15.18.27.32.35.5.09.15.15.38.18.68s.06.53.06.74v4.8h-1.68v-4.59c0-.15,0-.32-.03-.53s-.03-.38-.06-.5c-.03-.12-.09-.24-.12-.38s-.12-.24-.21-.29c-.09-.06-.21-.09-.33-.09-.27,0-.53.09-.83.26s-.56.38-.8.62c-.24.24-.44.47-.62.74-.18.24-.33.44-.41.62l-.15.26v3.91h-1.66v-7.18h1.63Z"/>
        <path class="cls-2" d="M509.02,83.82v1.62c1-1.12,2.07-1.68,3.13-1.68.35,0,.65.03.92.12s.47.21.62.38c.15.18.27.32.35.5.09.15.15.38.18.68s.06.53.06.74v4.8h-1.68v-4.59c0-.15,0-.32-.03-.53s-.03-.38-.06-.5c-.03-.12-.09-.24-.12-.38s-.12-.24-.21-.29c-.09-.06-.21-.09-.33-.09-.27,0-.53.09-.83.26s-.56.38-.8.62c-.24.24-.44.47-.62.74-.18.24-.33.44-.41.62l-.15.26v3.91h-1.66v-7.18h1.63Z"/>
        <path class="cls-2" d="M521.82,90.94v-3.53c-1.68-.15-2.51-.21-2.54-.21-.41,0-.77.15-1.06.47-.3.29-.44.65-.44,1.03,0,.44.15.82.44,1.15s.68.47,1.15.47c.24,0,.83-.06,1.74-.15l.03.79c-1.09.09-1.77.12-2.1.12-.89,0-1.6-.24-2.19-.68s-.86-1-.86-1.65c0-.56.3-1.09.86-1.59s1.27-.74,2.16-.74c.27,0,1.18.09,2.81.26v-.41c0-.44-.18-.82-.53-1.18-.35-.32-.8-.5-1.3-.5-.24,0-.77.03-1.63.06s-1.45.06-1.74.06v-.91c.3,0,.68-.03,1.18-.03s.98-.03,1.39-.03h1.18c.89,0,1.63.21,2.22.62s.89.94.89,1.62v4.97l-1.66-.03h0Z"/>
        <path class="cls-2" d="M530.57,80.85c.44,0,.83.03,1.09.12.27.09.47.21.59.41s.18.35.21.47c.03.12.03.32.03.56v5.68c0,.59.21,1.12.65,1.56s.98.65,1.63.65,1.33-.24,1.92-.68.89-.97.89-1.53v-6.12c0-.12.03-.24.06-.41s.09-.29.15-.38.18-.18.33-.24.3-.12.5-.12c-.09.56-.15,1.09-.15,1.56v5.68c0,.82-.38,1.53-1.15,2.12s-1.68.88-2.75.88-1.98-.29-2.75-.88c-.77-.59-1.15-1.29-1.15-2.12v-5.68c0-.21,0-.44-.03-.71s-.06-.47-.09-.62l.03-.21Z"/>
        <path class="cls-2" d="M542.36,83.82v1.62c1-1.12,2.07-1.68,3.13-1.68.35,0,.65.03.92.12s.47.21.62.38c.15.18.27.32.35.5.09.15.15.38.18.68s.06.53.06.74v4.8h-1.68v-4.59c0-.15,0-.32-.03-.53s-.03-.38-.06-.5c-.03-.12-.09-.24-.12-.38s-.12-.24-.21-.29c-.09-.06-.21-.09-.33-.09-.27,0-.53.09-.83.26s-.56.38-.8.62c-.24.24-.44.47-.62.74-.18.24-.33.44-.41.62l-.15.26v3.91h-1.66v-7.18h1.63Z"/>
        <path class="cls-2" d="M549.93,80.99h1.68v1.38h-1.68v-1.38ZM549.93,83.82h1.68v7.09h-1.68v-7.09Z"/>
        <path class="cls-2" d="M555.22,83.82l2.54,4.74,2.54-4.74h1l-4.05,7.53-4.05-7.53h2.01Z"/>
        <path class="cls-2" d="M568.9,88.94l.62.65c-.8.94-1.89,1.41-3.28,1.41-1.09,0-2.04-.35-2.87-1.06-.83-.71-1.24-1.56-1.24-2.53s.38-1.88,1.15-2.59,1.68-1.06,2.78-1.06c.3,0,.74,0,1.33.03s1.12.03,1.63.03v.85c-1.66-.12-2.66-.15-2.99-.15-.53,0-1,.21-1.39.59-.38.41-.62.91-.74,1.56h4.34v.85h-4.4c.03.79.27,1.44.71,1.97.44.53,1,.79,1.66.79,1,0,1.89-.44,2.69-1.35Z"/>
        <path class="cls-2" d="M577.95,85.82h-1.66c0-.38-.06-.68-.18-.91-.12-.24-.33-.35-.56-.35-.27,0-.53.09-.83.26s-.56.38-.8.62c-.24.24-.44.47-.62.74-.18.24-.33.44-.41.62l-.15.26v3.91h-1.66v-7.15h1.66v1.62c1-1.12,2.07-1.68,3.13-1.68,1.36,0,2.07.68,2.07,2.06Z"/>
        <path class="cls-2" d="M581.73,91c-.3,0-.74,0-1.33-.03-.56-.03-1.03-.03-1.36-.03v-.82c.33,0,.77.03,1.33.06s1,.06,1.33.06c.5,0,.95-.09,1.27-.26.33-.18.5-.38.5-.62,0-.35-.35-.65-1.03-.91l-2.07-.77c-.53-.18-.92-.47-1.21-.82-.3-.35-.41-.71-.41-1.12,0-.53.24-1,.74-1.38.5-.38,1.18-.59,2.07-.59.3,0,.71,0,1.27.03.53.03.98.03,1.27.03v.82c-1.27-.09-2.1-.12-2.51-.12-.44,0-.8.09-1.06.24s-.41.32-.41.53c0,.32.3.59.89.82l2.1.77c.59.21,1,.5,1.3.82.3.35.44.74.44,1.12,0,.59-.3,1.09-.86,1.5-.56.47-1.33.68-2.25.68Z"/>
        <path class="cls-2" d="M586.81,80.99h1.68v1.38h-1.68v-1.38ZM586.81,83.82h1.68v7.09h-1.68v-7.09Z"/>
        <path class="cls-2" d="M596.86,90.94h-3.25c-.33,0-.59,0-.8-.03-.21,0-.38-.06-.53-.15s-.27-.18-.33-.26-.12-.24-.15-.47c-.03-.24-.06-.47-.06-.68v-4.71h-1.63v-.82h1.63v-2.12h1.68v2.12h3.1v.79h-3.1v3.56c0,.88.06,1.44.15,1.65s.38.32.89.32h2.42l-.03.79h0Z"/>
        <path class="cls-2" d="M603.42,90.94v-1.62c-1,1.12-2.07,1.68-3.13,1.68-.35,0-.65-.03-.92-.12s-.47-.21-.62-.38-.27-.32-.35-.5c-.09-.15-.15-.38-.18-.68s-.06-.53-.06-.74v-4.77h1.68v4.59c0,.15,0,.32.03.53,0,.21.03.38.06.5.03.12.09.24.12.38.06.12.12.24.21.29s.21.09.33.09c.27,0,.53-.09.83-.26s.56-.38.8-.62c.24-.24.44-.47.62-.74.18-.24.33-.44.44-.62l.15-.26v-3.88h1.66v7.09c0,.38-.06.74-.18,1.06s-.3.62-.56.88-.62.5-1.12.65c-.5.15-1.09.24-1.77.24h-3.1v-.77h3.1c.41,0,.77-.06,1.03-.18s.47-.29.59-.5.21-.44.27-.65.09-.41.09-.71Z"/>
        <path class="cls-2" d="M607.3,89.53h1.48l-.95,2.97h-.5v-2.97h-.03Z"/>
        <path class="cls-2" d="M191.19,106.83l-1.21-2.53h-3.64l-1.18,2.53c-.12.24-.18.38-.24.5-.06.09-.15.24-.3.38s-.3.26-.5.32c-.18.06-.41.09-.68.09.3-.44.53-.88.74-1.29l4.46-9.5,4.46,9.5c.09.18.21.38.33.62.12.21.24.38.3.5l.12.18c-.5,0-.89-.03-1.24-.09-.33-.06-.59-.18-.77-.32s-.33-.29-.38-.38c-.06-.12-.15-.29-.27-.5ZM188.17,100.44l-1.42,3h2.84l-1.42-3Z"/>
        <path class="cls-2" d="M194.88,110.83v-9.95h3.55c1.06,0,1.98.32,2.69,1,.74.68,1.09,1.5,1.09,2.5s-.35,1.88-1.09,2.59c-.71.71-1.63,1.03-2.66,1.03h-1.27v-.74h1.06c.68,0,1.24-.26,1.63-.82.41-.56.62-1.24.62-2.06s-.21-1.47-.59-1.97-.95-.77-1.63-.77h-.5c-.18,0-.41,0-.65.03h-.56v9.15h-1.68Z"/>
        <path class="cls-2" d="M203.75,110.83v-9.95h3.55c1.06,0,1.98.32,2.69,1,.74.68,1.09,1.5,1.09,2.5s-.35,1.88-1.09,2.59c-.71.71-1.63,1.03-2.66,1.03h-1.27v-.74h1.06c.68,0,1.24-.26,1.63-.82.41-.56.62-1.24.62-2.06s-.21-1.47-.59-1.97-.95-.77-1.63-.77h-.5c-.18,0-.41,0-.65.03h-.56v9.15h-1.68Z"/>
        <path class="cls-2" d="M219.53,102.88h-1.66c0-.38-.06-.68-.18-.91-.12-.24-.33-.35-.56-.35-.27,0-.53.09-.83.26s-.56.38-.8.62c-.24.24-.44.47-.62.74-.18.24-.33.44-.41.62l-.15.26v3.91h-1.66v-7.15h1.66v1.62c1-1.12,2.07-1.68,3.13-1.68,1.36,0,2.07.68,2.07,2.06Z"/>
        <path class="cls-2" d="M221.34,107.03c-.77-.71-1.15-1.56-1.15-2.59s.38-1.91,1.15-2.59c.77-.71,1.71-1.06,2.87-1.06s2.1.35,2.87,1.06c.77.71,1.15,1.56,1.15,2.59s-.38,1.91-1.15,2.59c-.77.71-1.71,1.06-2.87,1.06s-2.1-.35-2.87-1.06ZM222.61,102.32c-.41.56-.62,1.27-.62,2.12s.21,1.53.62,2.12c.41.56.95.85,1.6.85s1.15-.29,1.6-.85c.41-.56.62-1.27.62-2.12s-.21-1.53-.62-2.12c-.41-.56-.95-.85-1.6-.85s-1.18.26-1.6.85Z"/>
        <path class="cls-2" d="M231,100.88l2.54,4.74,2.57-4.74h1l-4.05,7.53-4.05-7.53h1.98Z"/>
        <path class="cls-2" d="M244.69,106l.62.65c-.8.94-1.89,1.41-3.28,1.41-1.09,0-2.04-.35-2.87-1.06s-1.24-1.56-1.24-2.53.38-1.88,1.15-2.59c.77-.71,1.68-1.06,2.78-1.06.3,0,.74,0,1.33.03s1.12.03,1.63.03v.85c-1.66-.12-2.66-.15-2.99-.15-.53,0-1,.21-1.39.59-.38.41-.62.91-.74,1.56h4.34v.85h-4.4c.03.79.27,1.44.71,1.97s1,.79,1.66.79c1-.03,1.89-.47,2.69-1.35Z"/>
        <path class="cls-2" d="M251.93,97.32h1.66v10.65h-1.66v-6.3h-.56c-.24,0-.44-.03-.65-.03h-.5c-.71,0-1.24.26-1.63.77s-.59,1.15-.59,1.97.21,1.5.62,2.06c.41.56.95.82,1.66.82h1.06v.74h-1.33c-1.06,0-1.95-.35-2.66-1.03-.71-.71-1.09-1.56-1.09-2.59s.35-1.85,1.09-2.5c.74-.68,1.63-1,2.69-1,.41,0,1.03,0,1.86.03v-3.59h.03Z"/>
        <path class="cls-2" d="M260.8,97.32h1.66v3.56c.83-.03,1.45-.03,1.86-.03,1.06,0,1.98.32,2.69,1,.74.68,1.09,1.5,1.09,2.5s-.35,1.88-1.09,2.59c-.71.71-1.63,1.03-2.66,1.03h-1.27v-.74h1.06c.68,0,1.24-.26,1.63-.82.41-.56.62-1.24.62-2.06s-.21-1.47-.59-1.97-.95-.77-1.63-.77h-.5c-.18,0-.41,0-.65.03h-.56v6.3h-1.66v-10.62h0Z"/>
        <path class="cls-2" d="M274.95,107.97v-1.62c-1,1.12-2.07,1.68-3.13,1.68-.35,0-.65-.03-.92-.12-.27-.09-.47-.21-.62-.38-.15-.18-.27-.32-.35-.5-.09-.15-.15-.38-.18-.68s-.06-.53-.06-.74v-4.74h1.68v4.59c0,.15,0,.32.03.53,0,.21.03.38.06.5.03.12.09.24.12.38.06.12.12.24.21.29s.21.09.33.09c.27,0,.53-.09.83-.26s.56-.38.8-.62c.24-.24.44-.47.62-.74.18-.24.33-.44.44-.62l.15-.26v-3.88h1.66v7.09c0,.38-.06.74-.18,1.06-.12.32-.3.62-.56.88s-.62.5-1.12.65-1.09.24-1.77.24h-3.1v-.77h3.1c.41,0,.77-.06,1.03-.18s.47-.29.59-.5.21-.44.27-.65c.06-.18.09-.44.09-.74Z"/>
        <path class="cls-2" d="M290.53,106.83l-1.21-2.53h-3.64l-1.18,2.53c-.12.24-.18.38-.24.5-.06.09-.15.24-.3.38s-.3.26-.5.32c-.18.06-.41.09-.68.09.3-.44.53-.88.74-1.29l4.46-9.5,4.46,9.5c.09.18.21.38.33.62.12.21.24.38.3.5l.12.18c-.5,0-.89-.03-1.24-.09-.33-.06-.59-.18-.77-.32s-.33-.29-.38-.38c-.06-.12-.15-.29-.27-.5ZM287.52,100.44l-1.42,3h2.84l-1.42-3Z"/>
        <path class="cls-2" d="M296.59,99.47v8.53h-1.77v-8.53c0-.24,0-.44.03-.56s.09-.29.21-.47.3-.32.59-.41c.27-.09.65-.12,1.09-.12-.09.56-.15,1.09-.15,1.56Z"/>
        <path class="cls-2" d="M307.23,105.65l1.06.5c-1,1.27-2.39,1.88-4.2,1.88-1.45,0-2.72-.5-3.78-1.47s-1.6-2.18-1.6-3.56.5-2.53,1.48-3.5c.98-.94,2.19-1.47,3.61-1.56h.98l3.1.09c0,.06,0,.12-.03.21,0,.09-.06.18-.09.32-.06.15-.15.26-.3.35-.15.09-.33.15-.53.15-.89-.21-1.8-.32-2.81-.32s-1.89.41-2.54,1.24c-.65.82-1,1.85-1,3.06s.35,2.18,1.06,3c.71.82,1.54,1.24,2.48,1.24,1.18,0,2.22-.53,3.1-1.62Z"/>
        <path class="cls-2" d="M309.42,98.91c-.21,0-.38-.09-.5-.24s-.18-.26-.21-.38c0-.12-.03-.21-.03-.26h9.84c0,.09,0,.18-.03.26,0,.12-.09.24-.21.38s-.3.24-.5.24c-.24,0-.59,0-1.12-.03-.5-.03-.98-.03-1.39-.03h-.74v9.12h-1.92v-9.12h-.74c-.41,0-.86,0-1.39.03-.47.03-.86.03-1.06.03Z"/>
        <path class="cls-2" d="M321.48,103.44v3.71h3.96c.3,0,.53.06.71.21.18.15.27.29.3.41l.03.21h-6.92c.09-.47.15-.94.15-1.41v-7.12c0-.21,0-.44-.03-.68s-.06-.41-.09-.56l-.03-.21h6.92v.09s-.03.12-.06.21c-.03.09-.09.18-.15.26s-.18.15-.3.21c-.15.06-.3.09-.5.09h-3.96v3.71h3.67v.85l-3.69.03h0Z"/>
        <path class="cls-2" d="M328.39,106.56h1.48l-.95,2.97h-.5l-.03-2.97h0Z"/>
        <path class="cls-2" d="M343.94,106.83l-1.21-2.53h-3.64l-1.18,2.53c-.12.24-.18.38-.24.5-.06.09-.15.24-.3.38s-.3.26-.5.32-.41.09-.68.09c.3-.44.53-.88.74-1.29l4.46-9.5,4.46,9.5c.09.18.21.38.33.62.12.21.24.38.3.5l.12.18c-.5,0-.89-.03-1.24-.09-.33-.06-.59-.18-.77-.32s-.33-.29-.38-.38c-.09-.12-.18-.29-.27-.5ZM340.9,100.44l-1.42,3h2.84l-1.42-3Z"/>
        <path class="cls-2" d="M353.75,106l.62.65c-.41.5-.86.85-1.36,1.09-.5.24-1.12.35-1.86.35-1.09,0-2.01-.35-2.84-1.06-.8-.71-1.21-1.56-1.21-2.53s.38-1.88,1.12-2.59,1.66-1.06,2.72-1.06c.3,0,.74,0,1.33.03s1.12.03,1.57.03v.85c-.24-.03-.53-.03-.92-.06-.38-.03-.71-.06-1-.06s-.62-.03-1-.03c-.62,0-1.12.26-1.54.82-.38.56-.59,1.24-.59,2.06s.21,1.5.65,2.06.98.82,1.63.82c1-.06,1.89-.5,2.69-1.38Z"/>
        <path class="cls-2" d="M361.94,106l.62.65c-.41.5-.86.85-1.36,1.09-.5.24-1.12.35-1.86.35-1.09,0-2.01-.35-2.84-1.06-.8-.71-1.21-1.56-1.21-2.53s.38-1.88,1.12-2.59,1.66-1.06,2.72-1.06c.3,0,.74,0,1.33.03s1.12.03,1.57.03v.85c-.24-.03-.53-.03-.92-.06-.38-.03-.71-.06-1-.06s-.62-.03-1-.03c-.62,0-1.12.26-1.54.82-.38.56-.59,1.24-.59,2.06s.21,1.5.65,2.06.98.82,1.63.82c1.03-.06,1.89-.5,2.69-1.38Z"/>
        <path class="cls-2" d="M370.99,102.88h-1.66c0-.38-.06-.68-.18-.91-.12-.24-.33-.35-.56-.35-.27,0-.53.09-.83.26s-.56.38-.8.62c-.24.24-.44.47-.62.74-.18.24-.33.44-.41.62l-.15.26v3.91h-1.66v-7.15h1.66v1.62c1-1.12,2.07-1.68,3.13-1.68,1.36,0,2.07.68,2.07,2.06Z"/>
        <path class="cls-2" d="M378.4,106l.62.65c-.8.94-1.89,1.41-3.28,1.41-1.09,0-2.04-.35-2.87-1.06-.83-.71-1.24-1.56-1.24-2.53s.38-1.88,1.15-2.59,1.68-1.06,2.78-1.06c.3,0,.74,0,1.33.03s1.12.03,1.63.03v.85c-1.66-.12-2.66-.15-2.99-.15-.53,0-1,.21-1.39.59-.38.41-.62.91-.74,1.56h4.34v.85h-4.4c.03.79.27,1.44.71,1.97.44.53,1,.79,1.66.79,1-.03,1.89-.47,2.69-1.35Z"/>
        <path class="cls-2" d="M385.65,97.32h1.66v10.65h-1.66v-6.3h-.56c-.24,0-.44-.03-.65-.03h-.5c-.71,0-1.24.26-1.63.77s-.59,1.15-.59,1.97.21,1.5.62,2.06.95.82,1.63.82h1.06v.74h-1.27c-1.06,0-1.95-.35-2.66-1.03-.71-.71-1.09-1.56-1.09-2.59s.35-1.85,1.09-2.5c.74-.68,1.63-1,2.69-1,.41,0,1.03,0,1.86.03v-3.59Z"/>
        <path class="cls-2" d="M389.67,98.03h1.68v1.38h-1.68v-1.38ZM389.67,100.88h1.68v7.09h-1.68v-7.09Z"/>
        <path class="cls-2" d="M399.69,107.97h-3.25c-.33,0-.59,0-.8-.03-.21,0-.38-.06-.53-.15s-.27-.18-.33-.26-.12-.24-.15-.47c-.03-.24-.06-.47-.06-.68v-4.71h-1.63v-.79h1.63v-2.12h1.68v2.12h3.1v.79h-3.1v3.56c0,.88.06,1.44.15,1.65s.38.32.89.32h2.42l-.03.76h0Z"/>
        <path class="cls-2" d="M407.28,106l.62.65c-.8.94-1.89,1.41-3.28,1.41-1.09,0-2.04-.35-2.87-1.06-.83-.71-1.24-1.56-1.24-2.53s.38-1.88,1.15-2.59c.77-.71,1.68-1.06,2.78-1.06.3,0,.74,0,1.33.03s1.12.03,1.63.03v.85c-1.66-.12-2.66-.15-2.99-.15-.53,0-1,.21-1.39.59-.38.41-.62.91-.74,1.56h4.34v.85h-4.4c.03.79.27,1.44.71,1.97.44.53,1,.79,1.66.79,1-.03,1.89-.47,2.69-1.35Z"/>
        <path class="cls-2" d="M414.52,97.32h1.66v10.65h-1.66v-6.3h-.56c-.24,0-.44-.03-.65-.03h-.5c-.71,0-1.24.26-1.63.77s-.59,1.15-.59,1.97.21,1.5.62,2.06.95.82,1.63.82h1.06v.74h-1.27c-1.06,0-1.95-.35-2.66-1.03-.71-.71-1.09-1.56-1.09-2.59s.35-1.85,1.09-2.5c.74-.68,1.63-1,2.69-1,.41,0,1.03,0,1.86.03v-3.59Z"/>
        <path class="cls-2" d="M423.39,97.32h1.66v3.56c.83-.03,1.45-.03,1.86-.03,1.06,0,1.98.32,2.69,1,.74.68,1.09,1.5,1.09,2.5s-.35,1.88-1.09,2.59c-.71.71-1.63,1.03-2.66,1.03h-1.27v-.74h1.06c.68,0,1.24-.26,1.63-.82.41-.56.62-1.24.62-2.06s-.21-1.47-.59-1.97-.95-.77-1.63-.77h-.5c-.18,0-.41,0-.65.03h-.56v6.3h-1.66v-10.62Z"/>
        <path class="cls-2" d="M437.55,107.97v-1.62c-1,1.12-2.07,1.68-3.13,1.68-.35,0-.65-.03-.92-.12s-.47-.21-.62-.38-.27-.32-.35-.5c-.09-.15-.15-.38-.18-.68s-.06-.53-.06-.74v-4.74h1.68v4.59c0,.15,0,.32.03.53,0,.21.03.38.06.5.03.12.09.24.12.38.06.12.12.24.21.29s.21.09.33.09c.27,0,.53-.09.83-.26s.56-.38.8-.62c.24-.24.44-.47.62-.74.18-.24.33-.44.44-.62l.15-.26v-3.88h1.66v7.09c0,.38-.06.74-.18,1.06s-.3.62-.56.88-.62.5-1.12.65c-.5.15-1.09.24-1.77.24h-3.1v-.77h3.1c.41,0,.77-.06,1.03-.18s.47-.29.59-.5.21-.44.27-.65.09-.44.09-.74Z"/>
        <path class="cls-2" d="M455.19,108.71l-7.68-7.91v6.24c0,.12-.03.24-.06.41s-.09.29-.15.38-.18.18-.33.24-.33.12-.53.12c.09-.56.15-1.09.15-1.56v-9.24l7.68,7.91v-5.8c0-.21,0-.35.03-.5,0-.15.06-.29.12-.47s.18-.32.33-.44c.15-.09.35-.15.62-.15-.09.56-.15,1.09-.15,1.56l-.03,9.21h0Z"/>
        <path class="cls-2" d="M464.12,106.83l-1.21-2.53h-3.64l-1.18,2.53c-.12.24-.18.38-.24.5-.06.09-.15.24-.3.38s-.3.26-.5.32-.41.09-.68.09c.3-.44.53-.88.74-1.29l4.46-9.5,4.46,9.5c.09.18.21.38.33.62.12.21.24.38.3.5l.12.18c-.5,0-.89-.03-1.24-.09-.33-.06-.59-.18-.77-.32s-.33-.29-.38-.38c-.06-.12-.15-.29-.27-.5ZM461.11,100.44l-1.42,3h2.84l-1.42-3Z"/>
        <path class="cls-2" d="M474.55,106.83l-1.21-2.53h-3.64l-1.18,2.53c-.12.24-.18.38-.24.5-.06.09-.15.24-.3.38s-.3.26-.5.32-.41.09-.68.09c.3-.44.53-.88.74-1.29l4.46-9.5,4.46,9.5c.09.18.21.38.33.62.12.21.24.38.3.5l.12.18c-.5,0-.89-.03-1.24-.09-.33-.06-.59-.18-.77-.32s-.33-.29-.38-.38c-.09-.12-.18-.29-.27-.5ZM471.51,100.44l-1.42,3h2.84l-1.42-3Z"/>
        <path class="cls-2" d="M486.23,105.65l1.06.5c-1,1.27-2.39,1.88-4.2,1.88-1.45,0-2.72-.5-3.78-1.47s-1.6-2.18-1.6-3.56.5-2.53,1.48-3.5c.98-.94,2.19-1.47,3.61-1.56h.98l3.1.09c0,.06,0,.12-.03.21,0,.09-.06.18-.09.32-.06.15-.15.26-.3.35s-.33.15-.53.15c-.89-.21-1.8-.32-2.81-.32s-1.89.41-2.54,1.24c-.65.82-1,1.85-1,3.06s.35,2.18,1.06,3c.71.82,1.54,1.24,2.48,1.24,1.18,0,2.22-.53,3.1-1.62Z"/>
        <path class="cls-2" d="M499.8,100.47l2.9,5.15,1.95-4.77h.89l-3.19,7.56-3.04-5.38-3.01,5.33-3.16-7.5h1.8l1.95,4.74,2.93-5.12Z"/>
        <path class="cls-2" d="M507.13,98.03h1.68v1.38h-1.68v-1.38ZM507.13,100.88h1.68v7.09h-1.68v-7.09Z"/>
        <path class="cls-2" d="M517.15,107.97h-3.25c-.33,0-.59,0-.8-.03-.21,0-.38-.06-.53-.15s-.27-.18-.33-.26-.12-.24-.15-.47c-.03-.24-.06-.47-.06-.68v-4.71h-1.63v-.79h1.63v-2.12h1.68v2.12h3.1v.79h-3.1v3.56c0,.88.06,1.44.15,1.65s.38.32.89.32h2.42l-.03.76h0Z"/>
        <path class="cls-2" d="M520.16,97.32v5.18c1-1.12,2.07-1.68,3.13-1.68.35,0,.65.03.92.12s.47.21.62.38c.15.18.27.32.35.5.09.15.15.38.18.68s.06.53.06.74v4.8h-1.68v-4.59c0-.15,0-.32-.03-.53s-.03-.38-.06-.5c-.03-.12-.09-.24-.12-.38s-.12-.24-.21-.29c-.09-.06-.21-.09-.33-.09-.27,0-.53.09-.83.26s-.56.38-.8.62c-.24.24-.44.47-.62.74-.18.24-.33.44-.41.62l-.15.26v3.91h-1.66v-10.65h1.63v-.09Z"/>
        <path class="cls-2" d="M535.69,100.88h-1.48l.95-2.97h.5v2.97h.03Z"/>
        <path class="cls-2" d="M543.14,106.83l-1.21-2.53h-3.64l-1.18,2.53c-.12.24-.18.38-.24.5-.06.09-.15.24-.3.38s-.3.26-.5.32-.41.09-.68.09c.3-.44.53-.88.74-1.29l4.46-9.5,4.46,9.5c.09.18.21.38.33.62.12.21.24.38.3.5l.12.18c-.5,0-.89-.03-1.24-.09-.33-.06-.59-.18-.77-.32s-.33-.29-.38-.38c-.09-.12-.18-.29-.27-.5ZM540.1,100.44l-1.42,3h2.84l-1.42-3Z"/>
        <path class="cls-2" d="M549.2,104.15h-2.51v-.82h2.51v-2.44h.86v2.44h2.51v.82h-2.51v2.44h-.86v-2.44Z"/>
        <path class="cls-2" d="M554.64,97.91h1.48l-.95,2.97h-.5v-2.97h-.03Z"/>
        <path class="cls-2" d="M570.29,108.06c-1.45,0-2.72-.5-3.78-1.47s-1.6-2.18-1.6-3.56.5-2.53,1.48-3.5c.98-.94,2.19-1.47,3.61-1.56h.98l3.1.09c0,.06,0,.12-.03.21,0,.09-.06.18-.09.32-.06.15-.15.26-.3.35s-.33.15-.53.15c-.89-.21-1.8-.32-2.81-.32s-1.89.41-2.54,1.24c-.65.82-1,1.85-1,3.06s.35,2.18,1.06,3c.71.82,1.54,1.24,2.48,1.24.24,0,.92-.06,2.01-.18v-3.44h1.77v2.91c0,.21,0,.44.03.68s.06.41.09.53l.03.21c-.38,0-1.03,0-1.95.03-.95,0-1.6.03-2.01.03Z"/>
        <path class="cls-2" d="M582.76,102.88h-1.66c0-.38-.06-.68-.18-.91-.12-.24-.33-.35-.56-.35-.27,0-.53.09-.83.26s-.56.38-.8.62c-.24.24-.44.47-.62.74-.18.24-.33.44-.41.62l-.15.26v3.91h-1.66v-7.15h1.66v1.62c1-1.12,2.07-1.68,3.13-1.68,1.36,0,2.07.68,2.07,2.06Z"/>
        <path class="cls-2" d="M589.47,107.97v-3.53c-1.68-.15-2.51-.21-2.54-.21-.41,0-.77.15-1.06.47-.3.29-.44.65-.44,1.03,0,.44.15.82.44,1.15s.68.47,1.15.47c.24,0,.83-.06,1.74-.15l.03.79c-1.09.09-1.77.12-2.1.12-.89,0-1.6-.24-2.19-.68s-.86-1-.86-1.65c0-.56.3-1.09.86-1.59s1.27-.74,2.16-.74c.27,0,1.18.09,2.81.26v-.41c0-.44-.18-.82-.53-1.18-.35-.32-.8-.5-1.3-.5-.24,0-.77.03-1.63.06s-1.45.06-1.74.06v-.88c.3,0,.68-.03,1.18-.03s.98-.03,1.39-.03h1.18c.89,0,1.63.21,2.22.62s.89.94.89,1.62v4.97h-1.66v-.06Z"/>
        <path class="cls-2" d="M598.19,97.32h1.66v10.65h-1.66v-6.3h-.56c-.24,0-.44-.03-.65-.03h-.5c-.71,0-1.24.26-1.63.77s-.59,1.15-.59,1.97.21,1.5.62,2.06.95.82,1.63.82h1.06v.74h-1.27c-1.06,0-1.95-.35-2.66-1.03-.71-.71-1.09-1.56-1.09-2.59s.35-1.85,1.09-2.5c.74-.68,1.63-1,2.69-1,.41,0,1.03,0,1.86.03v-3.59Z"/>
        <path class="cls-2" d="M608.15,106l.62.65c-.8.94-1.89,1.41-3.28,1.41-1.09,0-2.04-.35-2.87-1.06-.83-.71-1.24-1.56-1.24-2.53s.38-1.88,1.15-2.59,1.68-1.06,2.78-1.06c.3,0,.74,0,1.33.03s1.12.03,1.63.03v.85c-1.66-.12-2.66-.15-2.99-.15-.53,0-1,.21-1.39.59-.38.41-.62.91-.74,1.56h4.34v.85h-4.4c.03.79.27,1.44.71,1.97.44.53,1,.79,1.66.79,1-.03,1.89-.47,2.69-1.35Z"/>
      </g>
      <g>
        <path class="cls-2" d="M199.26,27.03c2,.74,3.68,1.74,5,3.03,1.35,1.29,2.03,2.65,2.03,4.12,0,2.24-1.18,4.15-3.56,5.74s-5.21,2.38-8.53,2.38c-1.41,0-3.5-.03-6.33-.09-2.82-.06-4.91-.09-6.33-.09.32-1.38.47-2.77.47-4.15v-21.07c0-.62-.03-1.27-.12-1.97s-.18-1.24-.26-1.65l-.09-.59c.85,0,2.62-.03,5.3-.09,2.68-.06,4.77-.09,6.24-.09,3.09,0,5.77.79,8,2.38,2.24,1.59,3.38,3.47,3.38,5.68,0,1.21-.47,2.38-1.44,3.5-1,1.15-2.24,2.12-3.77,2.94ZM192.14,14.73c-.44,0-1.15.03-2.12.06s-1.77.06-2.38.06v11.59c.5,0,1.24,0,2.24.03,1,0,1.74.03,2.24.03,1.85,0,3.41-.56,4.68-1.68,1.27-1.12,1.91-2.59,1.91-4.41,0-1.62-.65-2.97-1.91-4.06-1.29-1.06-2.85-1.62-4.65-1.62ZM187.64,39.95c.59,0,1.53.03,2.82.06,1.29.03,2.32.06,3.06.06,1.94,0,3.59-.56,4.94-1.65,1.35-1.12,2.03-2.44,2.03-4.06,0-1.82-.71-3.3-2.09-4.41-1.38-1.12-3.12-1.68-5.18-1.68-2.44,0-4.33.03-5.62.09l.03,11.59h0Z"/>
        <path class="cls-2" d="M232.13,38.65l-3.83-7.47h-11.62l-3.8,7.44c-.35.68-.59,1.15-.79,1.44-.18.29-.5.68-.91,1.15-.44.47-.94.79-1.56,1-.62.21-1.32.29-2.18.29.91-1.29,1.68-2.56,2.35-3.85l14.24-28.01,14.24,28.01c.29.56.62,1.15,1,1.79.38.65.71,1.15.97,1.5l.38.56c-1.56,0-2.85-.09-3.91-.29s-1.85-.53-2.47-.97c-.59-.44-1.03-.82-1.27-1.15-.24-.32-.53-.79-.85-1.44ZM222.48,19.79l-4.5,8.89h9.06l-4.56-8.89Z"/>
        <path class="cls-2" d="M271.91,44.18l-24.51-23.39v17.09c0,.56,0,1-.03,1.29s-.09.71-.21,1.21-.29.85-.53,1.12c-.21.26-.56.47-1.03.71-.47.21-1.03.32-1.68.32.32-1.68.47-3.21.47-4.62V10.64l24.51,23.39v-17.07c0-.59.03-1.09.06-1.47.06-.38.18-.88.38-1.44s.56-1,1.06-1.29c.5-.29,1.15-.44,1.97-.44-.32,1.68-.47,3.21-.47,4.62v27.25Z"/>
        <path class="cls-2" d="M306.92,44.18l-24.51-23.39v17.09c0,.56,0,1-.03,1.29s-.09.71-.21,1.21-.29.85-.53,1.12c-.21.26-.56.47-1.03.71-.47.21-1.03.32-1.68.32.32-1.68.47-3.21.47-4.62V10.64l24.51,23.39v-17.07c0-.59.03-1.09.06-1.47.06-.38.18-.88.38-1.44s.56-1,1.06-1.29c.5-.29,1.15-.44,1.97-.44-.32,1.68-.47,3.21-.47,4.62v27.25Z"/>
        <path class="cls-2" d="M335.34,38.65l-3.83-7.47h-11.62l-3.77,7.44c-.35.68-.59,1.15-.79,1.44-.18.29-.5.68-.91,1.15-.44.47-.94.79-1.56,1-.62.21-1.32.29-2.18.29.91-1.29,1.68-2.56,2.35-3.85l14.24-28.01,14.24,28.01c.29.56.62,1.15,1,1.79s.71,1.15.97,1.5l.38.56c-1.56,0-2.85-.09-3.91-.29-1.06-.21-1.85-.53-2.47-.97s-1.03-.82-1.27-1.15-.56-.79-.88-1.44ZM325.69,19.79l-4.5,8.89h9.06l-4.56-8.89Z"/>
        <path class="cls-2" d="M355.03,26.85h3.62c1.88,0,3.44-.65,4.68-1.94,1.24-1.29,1.85-2.77,1.85-4.44s-.62-3-1.82-4.06-2.71-1.56-4.44-1.56c-.47,0-1.29,0-2.47.03s-2.24.03-3.15.03v22.95c0,.74-.03,1.27-.12,1.65-.09.38-.29.85-.65,1.38-.35.56-.97.94-1.85,1.21s-2.06.38-3.5.38c.32-1.68.47-3.21.47-4.62v-20.95c0-.62-.03-1.27-.12-1.97s-.18-1.24-.26-1.65l-.09-.59c1.32,0,3.38-.03,6.18-.09,2.82-.06,4.97-.09,6.47-.09,3.09,0,5.71.71,7.8,2.15,2.12,1.41,3.18,3.32,3.18,5.71,0,1.91-.85,3.53-2.53,4.88s-3.91,2.24-6.68,2.65l9.18,11.18c.5.59,1.03,1.18,1.56,1.74.56.56.97.97,1.29,1.27l.47.41c-1.91,0-3.5-.18-4.8-.56s-2.15-.77-2.62-1.15-1.03-.94-1.65-1.68l-10-12.27Z"/>
        <path class="cls-2" d="M384.83,16.91v25.16h-5.62v-25.16c0-.74.03-1.27.12-1.65.09-.38.29-.85.65-1.38.35-.56.97-.94,1.85-1.21s2.06-.38,3.5-.38c-.35,1.71-.5,3.24-.5,4.62Z"/>
        <path class="cls-2" d="M431.06,38.65l-3.83-7.47h-11.62l-3.8,7.44c-.35.68-.59,1.15-.79,1.44-.18.29-.5.68-.91,1.15-.44.47-.94.79-1.56,1-.62.21-1.32.29-2.18.29.91-1.29,1.68-2.56,2.35-3.85l14.24-28.01,14.24,28.01c.29.56.62,1.15,1,1.79s.71,1.15.97,1.5l.38.56c-1.56,0-2.85-.09-3.91-.29-1.06-.21-1.85-.53-2.47-.97s-1.03-.82-1.27-1.15-.5-.79-.85-1.44ZM421.41,19.79l-4.5,8.89h9.06l-4.56-8.89Z"/>
        <path class="cls-2" d="M476.87,20.67l-11.83,23.54-12.62-23.63-7.03,17.86c-.21.62-.41,1.12-.62,1.5-.21.38-.47.79-.82,1.24-.35.44-.82.79-1.38,1s-1.24.32-2.03.32c.74-1.35,1.38-2.68,1.91-4.03l10.89-27.86,13.06,24.72,12.42-24.72,11,27.8c.24.62.5,1.27.76,1.94.26.68.53,1.21.74,1.56l.29.59c-1.47,0-2.68-.12-3.65-.32s-1.74-.56-2.27-1c-.53-.47-.88-.85-1.09-1.21-.21-.32-.44-.85-.71-1.5l-7.03-17.8Z"/>
        <path class="cls-2" d="M529.83,20.67l-11.83,23.54-12.62-23.63-7.03,17.86c-.21.62-.41,1.12-.62,1.5-.21.38-.47.79-.82,1.24-.35.44-.82.79-1.38,1s-1.24.32-2.03.32c.74-1.35,1.38-2.68,1.91-4.03l10.89-27.86,13.06,24.72,12.42-24.72,11,27.8c.24.62.5,1.27.76,1.94.26.68.53,1.21.74,1.56l.29.59c-1.47,0-2.68-.12-3.65-.32s-1.74-.56-2.27-1c-.53-.47-.88-.85-1.09-1.21-.21-.32-.44-.85-.71-1.5l-7.03-17.8Z"/>
        <path class="cls-2" d="M570.17,38.65l-3.83-7.47h-11.59l-3.8,7.44c-.35.68-.59,1.15-.79,1.44-.18.29-.5.68-.91,1.15-.44.47-.94.79-1.56,1-.62.21-1.32.29-2.18.29.91-1.29,1.68-2.56,2.35-3.85l14.24-28.01,14.24,28.01c.29.56.62,1.15,1,1.79s.71,1.15.97,1.5l.38.56c-1.56,0-2.85-.09-3.91-.29-1.06-.21-1.85-.53-2.47-.97s-1.03-.82-1.27-1.15-.53-.79-.88-1.44ZM560.55,19.79l-4.5,8.89h9.06l-4.56-8.89Z"/>
        <path class="cls-2" d="M609.98,44.18l-24.51-23.39v17.09c0,.56,0,1-.03,1.29s-.09.71-.21,1.21c-.12.5-.29.85-.53,1.12-.21.26-.56.47-1.03.71-.47.21-1.03.32-1.68.32.32-1.68.47-3.21.47-4.62V10.64l24.51,23.39v-17.07c0-.59.03-1.09.06-1.47.06-.38.18-.88.38-1.44.21-.56.56-1,1.06-1.29s1.15-.44,1.97-.44c-.32,1.68-.47,3.21-.47,4.62v27.25Z"/>
      </g>
      <g>
        <path class="cls-1" d="M186.84,58.41v15.83h-3.62v-15.83c0-.47.03-.79.09-1.03.06-.24.18-.53.41-.88.21-.35.62-.59,1.18-.77.56-.15,1.32-.24,2.24-.24-.21,1.06-.29,2.03-.29,2.91Z"/>
        <path class="cls-1" d="M210.24,75.57l-15.74-14.71v10.74c0,.35,0,.62-.03.82,0,.21-.06.44-.15.77-.09.29-.18.53-.32.71-.15.15-.35.29-.68.44-.29.12-.68.21-1.09.21.21-1.06.29-2.03.29-2.91v-17.15l15.74,14.71v-10.74c0-.38.03-.68.06-.94.03-.24.12-.56.24-.91.12-.35.35-.62.68-.79.32-.18.74-.26,1.27-.26-.21,1.06-.29,2.03-.29,2.91l.03,17.12h0Z"/>
        <path class="cls-1" d="M225.92,57.53c-2.18-.32-3.68-.47-4.56-.47-1.35,0-2.41.26-3.15.82-.74.56-1.12,1.21-1.12,2s.41,1.41,1.24,1.77l7.53,3.21c1.09.47,1.91,1.09,2.47,1.82s.85,1.53.85,2.38c0,1.41-.71,2.65-2.12,3.71s-3.32,1.59-5.71,1.59c-.85,0-2.09-.03-3.68-.06-1.59-.06-2.8-.06-3.65-.06l1.59-1.97c2,.41,3.88.62,5.68.62,1.56,0,2.77-.29,3.62-.85.85-.56,1.27-1.24,1.27-2,0-.88-.47-1.5-1.44-1.88l-7.36-3.21c-.97-.41-1.74-1.03-2.27-1.79s-.79-1.59-.79-2.47c0-1.38.62-2.56,1.82-3.53,1.24-.97,2.97-1.47,5.21-1.47.76,0,1.91.03,3.41.06,1.5.06,2.65.06,3.35.06,0,.12-.03.24-.06.38-.03.15-.12.32-.24.56s-.35.44-.68.59c-.32.12-.74.21-1.24.21Z"/>
        <path class="cls-1" d="M231.98,57.39c-.44,0-.79-.15-1.03-.41-.26-.29-.38-.53-.41-.71-.03-.21-.06-.35-.06-.5h20.15c0,.15-.03.29-.06.5-.03.21-.18.44-.41.71-.26.29-.59.41-1.03.41-.47,0-1.21-.03-2.27-.06-1.06-.03-2-.06-2.82-.06h-1.53v16.98h-3.91v-16.95h-1.53c-.82,0-1.77.03-2.82.06-1.03.03-1.79.03-2.27.03Z"/>
        <path class="cls-1" d="M257.58,58.41v15.83h-3.62v-15.83c0-.47.03-.79.09-1.03s.18-.53.41-.88c.21-.35.62-.59,1.18-.77.56-.15,1.32-.24,2.24-.24-.21,1.06-.29,2.03-.29,2.91Z"/>
        <path class="cls-1" d="M262.37,57.39c-.44,0-.79-.15-1.03-.41-.26-.29-.38-.53-.41-.71-.03-.21-.06-.35-.06-.5h20.15c0,.15-.03.29-.06.5-.03.21-.18.44-.41.71-.26.29-.59.41-1.03.41-.47,0-1.21-.03-2.27-.06-1.06-.03-2-.06-2.82-.06h-1.53v16.98h-3.91v-16.95h-1.53c-.82,0-1.77.03-2.82.06-1.03.03-1.79.03-2.27.03Z"/>
        <path class="cls-1" d="M283.15,55.5c.91,0,1.68.09,2.24.24s.97.41,1.18.77c.21.35.35.65.41.88s.09.59.09,1.03v10.53c0,1.12.44,2.06,1.35,2.88s2.03,1.24,3.35,1.24c1.41,0,2.71-.41,3.91-1.27,1.21-.82,1.79-1.79,1.79-2.85v-10.56c0-.35,0-.62.03-.82,0-.21.06-.44.12-.77.06-.29.18-.53.32-.71.15-.15.35-.29.65-.44.29-.12.62-.21,1.06-.21-.21,1.06-.29,2.03-.29,2.91v10.59c0,1.53-.76,2.82-2.32,3.91-1.56,1.09-3.41,1.62-5.62,1.62s-4.06-.53-5.62-1.62-2.32-2.38-2.32-3.91v-10.56c0-.38-.03-.82-.09-1.29-.06-.47-.12-.88-.18-1.18l-.06-.41Z"/>
        <path class="cls-1" d="M303.24,57.39c-.44,0-.79-.15-1.03-.41-.26-.29-.38-.53-.41-.71-.03-.21-.06-.35-.06-.5h20.15c0,.15-.03.29-.06.5-.03.21-.18.44-.41.71-.26.29-.59.41-1.03.41-.47,0-1.21-.03-2.27-.06-1.06-.03-2-.06-2.82-.06h-1.53v16.98h-3.91v-16.95h-1.53c-.82,0-1.77.03-2.82.06-1.03.03-1.79.03-2.27.03Z"/>
        <path class="cls-1" d="M327.93,65.8v6.86h8.12c.62,0,1.12.12,1.47.38.35.26.56.53.59.79l.06.38h-14.15c.21-.85.29-1.74.29-2.62v-13.21c0-.38-.03-.79-.09-1.24s-.12-.79-.18-1.03l-.06-.38h14.15s0,.09-.03.18c0,.09-.06.21-.12.38-.06.18-.18.32-.32.47s-.35.26-.62.38c-.29.12-.62.18-1.03.18h-8.12v6.86h7.53v1.59l-7.5.03h0Z"/>
        <path class="cls-1" d="M354.26,71.74c-2-1.82-3-4.09-3-6.74s1-4.91,3-6.74c2-1.82,4.53-2.77,7.59-2.77s5.59.91,7.59,2.77c2,1.82,3,4.09,3,6.74s-1,4.91-3,6.74c-2,1.82-4.53,2.77-7.59,2.77s-5.62-.94-7.59-2.77ZM356.97,59.18c-1.29,1.59-1.94,3.53-1.94,5.8s.65,4.21,1.94,5.8,2.91,2.38,4.88,2.38,3.59-.79,4.88-2.38c1.29-1.59,1.94-3.53,1.94-5.8s-.65-4.21-1.94-5.8-2.91-2.38-4.88-2.38c-1.97.03-3.59.82-4.88,2.38Z"/>
        <path class="cls-1" d="M379.48,57.36v6.86h7.53v1.59h-7.53v5.8c0,.47-.03.79-.09,1.03-.06.24-.18.53-.41.88s-.62.59-1.18.77c-.56.15-1.32.24-2.24.24.21-1.06.29-2.03.29-2.91v-13.18c0-.38-.03-.79-.09-1.24-.06-.44-.12-.79-.18-1.03l-.06-.38h14.15c0,.06,0,.15-.03.21,0,.06-.06.21-.12.38-.06.18-.18.35-.32.47-.15.12-.35.26-.62.35-.29.12-.62.15-1.03.15l-8.09.03h0Z"/>
        <path class="cls-1" d="M402.37,57.39c-.44,0-.79-.15-1.03-.41-.26-.29-.38-.53-.41-.71-.03-.21-.06-.35-.06-.5h20.15c0,.15-.03.29-.06.5s-.18.44-.41.71c-.26.29-.59.41-1.03.41-.47,0-1.21-.03-2.27-.06-1.06-.03-2-.06-2.82-.06h-1.53v16.98h-3.91v-16.95h-1.53c-.82,0-1.77.03-2.82.06-1.06.03-1.82.03-2.27.03Z"/>
        <path class="cls-1" d="M427.03,65.8v6.86h8.12c.62,0,1.12.12,1.47.38.35.26.56.53.59.79l.06.38h-14.15c.21-.85.29-1.74.29-2.62v-13.21c0-.38-.03-.79-.09-1.24-.06-.44-.12-.79-.18-1.03l-.06-.38h14.15s0,.09-.03.18c0,.09-.06.21-.12.38-.06.18-.18.32-.32.47s-.35.26-.62.38c-.29.12-.62.18-1.03.18h-8.12v6.86h7.53v1.59l-7.5.03h0Z"/>
        <path class="cls-1" d="M457.21,69.92l2.21.94c-2.06,2.35-4.91,3.5-8.59,3.5-3,0-5.56-.91-7.74-2.74s-3.27-4.03-3.27-6.65,1-4.71,3-6.47c2-1.77,4.47-2.74,7.39-2.88.38-.03,1.06-.03,2.03-.03l6.33.15c0,.12-.03.24-.06.38s-.09.35-.21.59c-.09.26-.29.47-.59.65-.29.18-.68.26-1.12.26-1.79-.38-3.71-.59-5.74-.59s-3.85.77-5.21,2.3-2.03,3.41-2.03,5.65.71,4.06,2.15,5.59c1.44,1.56,3.15,2.32,5.09,2.32,2.41.03,4.53-.97,6.36-2.97Z"/>
        <path class="cls-1" d="M466.19,58.41v5.8h9.77v-5.8c0-.47.03-.79.09-1.03.06-.24.18-.53.41-.88.21-.35.62-.59,1.18-.77s1.32-.24,2.24-.24c-.21,1.06-.29,2.03-.29,2.91v13.21c0,.38.03.82.09,1.29.06.47.09.85.15,1.15l.09.41c-.91,0-1.68-.09-2.24-.24s-.97-.41-1.18-.77c-.24-.35-.35-.65-.41-.88-.06-.24-.09-.59-.09-1.03v-5.8h-9.77v5.83c0,.47-.03.79-.09,1.03-.06.24-.18.53-.41.88s-.62.59-1.18.77c-.56.15-1.32.24-2.24.24.21-1.03.29-2,.29-2.88v-13.21c0-.38-.03-.82-.09-1.29-.06-.47-.12-.88-.18-1.18l-.06-.41c.91,0,1.68.09,2.24.24s.97.41,1.18.77c.24.35.35.65.41.88.06.18.09.53.09,1Z"/>
        <path class="cls-1" d="M502.08,75.57l-15.74-14.71v10.74c0,.35,0,.62-.03.82,0,.21-.06.44-.15.77-.09.29-.18.53-.32.71-.15.15-.35.29-.65.44-.29.12-.65.21-1.09.21.21-1.06.29-2.03.29-2.91v-17.15l15.74,14.71v-10.74c0-.38.03-.68.06-.94.03-.24.12-.56.24-.91.12-.35.35-.62.68-.79.32-.18.74-.26,1.27-.26-.21,1.06-.29,2.03-.29,2.91v17.12h0Z"/>
        <path class="cls-1" d="M508.53,71.74c-2-1.82-3-4.09-3-6.74s1-4.91,3-6.74c2-1.82,4.53-2.77,7.59-2.77s5.59.91,7.59,2.77c2,1.82,3,4.09,3,6.74s-1,4.91-3,6.74c-2,1.82-4.53,2.77-7.59,2.77s-5.59-.94-7.59-2.77ZM511.24,59.18c-1.29,1.59-1.94,3.53-1.94,5.8s.65,4.21,1.94,5.8,2.91,2.38,4.88,2.38,3.59-.79,4.88-2.38,1.94-3.53,1.94-5.8-.65-4.21-1.94-5.8c-1.29-1.59-2.91-2.38-4.88-2.38-1.97.03-3.59.82-4.88,2.38Z"/>
        <path class="cls-1" d="M533.77,58.41v14.24h8.12c.41,0,.74.06,1.03.15.29.12.5.24.62.35.15.12.24.29.32.47.06.18.12.32.12.38s.03.15.03.21h-14.15c.21-.88.29-1.77.29-2.65v-13.18c0-.38-.03-.82-.09-1.29-.06-.47-.12-.88-.18-1.18l-.06-.41c.91,0,1.68.09,2.24.24s.97.41,1.18.77c.24.35.35.65.41.88.09.21.12.56.12,1.03Z"/>
        <path class="cls-1" d="M547.46,71.74c-2-1.82-3-4.09-3-6.74s1-4.91,3-6.74c2-1.82,4.53-2.77,7.59-2.77s5.59.91,7.59,2.77c2,1.82,3,4.09,3,6.74s-1,4.91-3,6.74c-2,1.82-4.53,2.77-7.59,2.77s-5.62-.94-7.59-2.77ZM550.16,59.18c-1.29,1.59-1.94,3.53-1.94,5.8s.65,4.21,1.94,5.8,2.91,2.38,4.88,2.38,3.59-.79,4.88-2.38,1.94-3.53,1.94-5.8-.65-4.21-1.94-5.8-2.91-2.38-4.88-2.38c-1.97.03-3.59.82-4.88,2.38Z"/>
        <path class="cls-1" d="M578.73,74.36c-3,0-5.56-.91-7.74-2.74s-3.27-4.03-3.27-6.65,1-4.71,3-6.47c2-1.77,4.47-2.74,7.39-2.88.38-.03,1.06-.03,2.03-.03l6.33.15c0,.12-.03.24-.06.38s-.09.35-.21.59c-.09.26-.29.47-.59.65-.29.18-.68.26-1.12.26-1.79-.38-3.71-.59-5.74-.59s-3.85.77-5.21,2.3-2.03,3.41-2.03,5.65.71,4.06,2.15,5.59c1.44,1.56,3.15,2.32,5.09,2.32.47,0,1.85-.12,4.12-.32v-6.41h3.62v5.44c0,.38.03.79.09,1.24.06.44.12.77.18,1l.06.38c-.79,0-2.15.03-4,.06-1.91.06-3.27.09-4.09.09Z"/>
        <path class="cls-1" d="M606.13,58l-4.91,5.71c-.53.65-.79,1.62-.79,3v7.53h-3.62v-7.53c0-1.06-.26-1.91-.82-2.56l-4.91-5.71c-.26-.29-.65-.71-1.18-1.18-.53-.5-.97-.91-1.35-1.24l-.59-.53c1.53,0,2.82.12,3.8.38,1,.26,1.65.5,2,.77.32.26.71.65,1.15,1.15l4.53,5.21,4.53-5.33c.38-.5.74-.85,1.03-1.12.29-.24.76-.5,1.41-.74.65-.24,1.44-.38,2.38-.38-1.18,1.06-2.09,1.88-2.65,2.56Z"/>
      </g>
      <path class="cls-2" d="M612.22,49.84H179.78c-.28,0-.5-.22-.5-.5s.22-.5.5-.5h432.43c.28,0,.5.22.5.5s-.22.5-.5.5Z"/>
    </g>
    <g id="bit_logo" data-name="bit logo">
      <g id="stay_ahead" data-name="stay ahead">
        <path class="cls-2" d="M68.83,94.36v4.45h-.35c-.11-.86-.32-1.54-.61-2.04-.31-.51-.74-.93-1.26-1.21-.51-.29-1.1-.44-1.69-.44-.6-.01-1.19.19-1.64.6-.4.35-.64.85-.64,1.37,0,.39.15.78.4,1.07.39.47,1.32,1.11,2.8,1.9,1.21.65,2.02,1.14,2.45,1.48.43.33.78.75,1.01,1.22.24.46.36.96.36,1.47,0,.97-.37,1.82-1.14,2.52-.75.71-1.72,1.05-2.91,1.05-.35,0-.71-.03-1.05-.08-.42-.1-.82-.21-1.22-.35-.61-.19-1.01-.29-1.16-.31-.14-.01-.28.04-.37.14s-.15.29-.21.58h-.33v-4.41h.35c.17.93.39,1.61.67,2.07.32.49.75.89,1.28,1.14.58.31,1.22.46,1.89.46.79,0,1.41-.21,1.87-.62.44-.36.69-.9.69-1.48,0-.33-.1-.67-.26-.96-.21-.36-.49-.67-.8-.9-.25-.19-.92-.6-2.02-1.21s-1.89-1.11-2.34-1.47c-.43-.33-.79-.74-1.05-1.22-.24-.44-.36-.96-.36-1.46,0-.92.37-1.78,1.05-2.39.71-.67,1.61-1,2.7-1,.75.01,1.48.18,2.16.5.24.12.49.21.75.24.15,0,.29-.04.4-.15.11-.1.19-.29.25-.6h.35v.03Z"/>
        <path class="cls-2" d="M73.85,95.97v2.86h2.02v.67h-2.02v5.63c0,.55.08.94.24,1.14s.37.31.62.29c.22,0,.43-.07.61-.19.21-.14.36-.35.46-.57h.37c-.22.62-.54,1.08-.94,1.4-.35.29-.79.46-1.25.47-.31,0-.6-.08-.85-.24-.28-.15-.49-.4-.61-.69-.12-.31-.19-.76-.19-1.39v-5.84h-1.37v-.31c.39-.17.75-.42,1.07-.71.37-.35.71-.75.97-1.18.24-.43.43-.86.61-1.32l.26-.03Z"/>
        <path class="cls-2" d="M81.65,106.26c-.89.69-1.46,1.08-1.68,1.19-.35.15-.71.24-1.1.24-.55.01-1.1-.21-1.48-.61-.39-.42-.58-.96-.58-1.62-.01-.39.08-.76.28-1.1.26-.43.71-.83,1.35-1.22.64-.37,1.71-.85,3.2-1.39v-.33c0-.86-.14-1.46-.42-1.78s-.68-.49-1.19-.49c-.35-.01-.68.1-.94.32-.22.18-.36.46-.36.74v.55c.03.25-.06.49-.21.68-.15.15-.36.25-.58.24-.22,0-.43-.08-.57-.25-.15-.19-.24-.43-.22-.68,0-.54.28-1.04.83-1.5s1.33-.68,2.34-.68c.78,0,1.4.12,1.9.39.37.19.68.53.83.92.11.28.17.83.17,1.66v2.95c-.01.51,0,1.01.04,1.53.01.14.07.26.15.37.07.06.15.1.25.1s.18-.01.26-.07c.28-.21.53-.44.76-.69v.53c-.71.94-1.39,1.43-2.02,1.43-.28.01-.55-.11-.74-.32-.18-.22-.26-.6-.28-1.11ZM81.65,105.64v-3.31c-.62.24-1.25.5-1.84.8-.42.21-.78.51-1.07.87-.21.29-.32.64-.32,1-.01.42.14.82.4,1.14.24.28.57.44.94.44.47.01,1.11-.31,1.89-.94Z"/>
        <path class="cls-2" d="M84.85,98.83h4.05v.35h-.21c-.22-.01-.46.04-.64.18-.14.11-.22.28-.21.46,0,.25.11.58.31,1.03l2.11,4.38,1.94-4.8c.1-.25.15-.5.17-.76,0-.08-.01-.18-.07-.25-.06-.08-.14-.14-.24-.17-.18-.06-.37-.07-.57-.06v-.35h2.83v.35c-.19.01-.37.07-.54.15-.17.11-.31.26-.42.43-.12.24-.24.49-.32.74l-3.54,8.67c-.35.85-.79,1.47-1.35,1.9-.55.43-1.08.65-1.59.65-.33.01-.67-.1-.92-.32-.22-.18-.36-.46-.36-.74-.01-.24.08-.47.26-.64.19-.17.46-.25.72-.24.29.01.58.1.85.21.15.07.31.11.47.14.24-.01.46-.12.62-.29.22-.19.44-.58.68-1.14l.62-1.51-3.13-6.59c-.14-.25-.28-.5-.46-.74-.11-.17-.24-.32-.39-.44-.22-.12-.46-.22-.71-.26v-.35Z"/>
        <path class="cls-2" d="M107.11,103.21h-4.98l-.87,2.02c-.22.5-.32.87-.32,1.12,0,.21.11.4.28.51.18.15.58.25,1.21.29v.35h-4.05v-.35c.54-.1.89-.22,1.04-.37.32-.31.68-.92,1.07-1.84l4.52-10.58h.33l4.48,10.69c.36.86.69,1.41.98,1.68s.71.4,1.22.43v.35h-5.08v-.35c.51-.03.86-.11,1.04-.25.17-.12.28-.32.28-.53,0-.28-.12-.72-.37-1.32l-.78-1.86ZM106.85,102.5l-2.18-5.2-2.25,5.2h4.42Z"/>
        <path class="cls-2" d="M115.4,94.03v6.35c.69-.78,1.25-1.26,1.66-1.48.37-.21.8-.32,1.23-.33.46-.01.9.14,1.28.4.36.28.62.69.79,1.28.12.4.18,1.15.18,2.22v3.06c0,.55.04.93.14,1.12.07.15.18.28.32.36.15.08.43.14.83.14v.35h-4.27v-.35h.19c.4,0,.68-.06.85-.18.17-.14.29-.33.33-.54.03-.29.04-.6.03-.89v-3.08c0-.94-.06-1.57-.15-1.87-.08-.26-.25-.5-.47-.67-.24-.15-.5-.24-.78-.22-.33,0-.67.1-.97.25-.33.17-.74.5-1.21,1v4.59c0,.6.03.97.1,1.11.08.15.21.29.37.36.18.1.49.15.93.15v.35h-4.3v-.35c.32.01.62-.04.92-.18.14-.08.25-.21.31-.36.07-.18.11-.54.11-1.08v-7.86c0-1-.03-1.59-.07-1.83-.03-.18-.1-.33-.22-.46-.11-.08-.25-.12-.39-.12-.22.01-.44.07-.65.15l-.14-.33,2.59-1.07h.46Z"/>
        <path class="cls-2" d="M124.03,102.1c0,1.29.31,2.3.94,3.04s1.37,1.1,2.23,1.1c.53.01,1.05-.15,1.48-.47.42-.31.78-.85,1.05-1.61l.29.19c-.14.89-.54,1.71-1.15,2.37-.6.69-1.48,1.08-2.4,1.07-1.04,0-1.94-.4-2.68-1.22-.75-.82-1.11-1.9-1.11-3.27,0-1.48.37-2.65,1.14-3.48.72-.82,1.78-1.28,2.87-1.25.97,0,1.78.32,2.4.96.62.64.94,1.5.93,2.58h-6.01ZM124.03,101.55h4.02c-.03-.55-.1-.94-.19-1.18-.15-.35-.39-.62-.71-.83-.29-.19-.64-.31-.98-.31-.53,0-1.04.22-1.4.61-.43.42-.67.98-.74,1.71h0Z"/>
        <path class="cls-2" d="M136.11,106.26c-.89.69-1.46,1.08-1.68,1.19-.35.15-.71.24-1.1.24-.55.01-1.1-.21-1.48-.61-.39-.42-.58-.96-.58-1.62-.01-.39.08-.76.28-1.1.26-.43.71-.83,1.35-1.22.64-.37,1.71-.85,3.2-1.39v-.33c0-.86-.14-1.46-.42-1.78s-.68-.49-1.21-.49c-.35-.01-.68.1-.94.32-.22.18-.36.46-.36.74v.55c.03.25-.06.49-.21.68-.15.15-.36.25-.58.24-.22,0-.42-.1-.55-.26-.15-.19-.24-.43-.22-.68,0-.54.28-1.04.83-1.5s1.33-.68,2.34-.68c.78,0,1.4.12,1.9.39.37.19.67.53.82.92.11.28.17.83.17,1.66v2.95c-.01.51,0,1.01.04,1.53.01.14.07.26.15.37.07.06.15.1.25.1s.18-.03.26-.07c.28-.21.53-.44.76-.69v.53c-.71.94-1.39,1.43-2.02,1.43-.28.01-.55-.11-.74-.32-.17-.21-.26-.58-.26-1.1ZM136.11,105.64v-3.31c-.62.24-1.25.5-1.84.8-.42.21-.78.51-1.07.87-.21.29-.32.64-.32,1-.01.42.14.82.4,1.14.24.28.57.44.94.44.47.01,1.1-.31,1.89-.94Z"/>
        <path class="cls-2" d="M145.94,106.54c-.36.39-.78.71-1.25.96-.4.19-.86.29-1.3.29-.94,0-1.78-.4-2.48-1.19s-1.07-1.82-1.07-3.05.42-2.44,1.18-3.41c.78-1.03,1.79-1.55,3.02-1.55.71-.03,1.39.24,1.9.74v-1.61c0-1-.03-1.59-.07-1.83-.01-.18-.1-.33-.22-.46-.11-.08-.24-.12-.37-.12-.22.01-.44.07-.65.15l-.12-.33,2.59-1.07h.43v10.04c0,1.01.03,1.64.07,1.86.03.18.11.35.24.47.1.08.24.14.36.14.24-.01.47-.07.68-.17l.11.33-2.58,1.07h-.44v-1.25h-.01ZM145.94,105.87v-4.48c-.03-.42-.15-.8-.35-1.18-.17-.33-.43-.61-.75-.8-.28-.17-.6-.26-.92-.28-.55,0-1.05.25-1.48.75-.57.65-.86,1.62-.86,2.88s.28,2.25.83,2.94c.55.68,1.18,1.01,1.86,1.01.57.01,1.12-.28,1.66-.85h0Z"/>
      </g>
      <path id="line" class="cls-2" d="M169.42,87.08H40.67c-.19,0-.35-.15-.35-.35s.15-.35.35-.35h128.75c.19,0,.35.15.35.35s-.15.35-.35.35Z"/>
      <g id="color">
        <path class="cls-2" d="M172.82,73.27l-4.62,5.49c-.37.44-.92.69-1.48.69h-42.1c10.07-6.6,16.13-17.83,16.14-29.87,0-19.72-15.99-35.71-35.71-35.71s-35.71,15.99-35.71,35.71c0,12.04,6.07,23.27,16.14,29.87h-42.09c-.57,0-1.12-.25-1.48-.69l-4.62-5.49,3.51-2.94,2.88,3.44c.37.44.92.69,1.48.69h24.42c-9.35-6.85-15.14-16.41-15.14-26.96-.01-20.87,22.65-37.79,50.61-37.79s50.62,16.92,50.62,37.79c0,10.55-5.8,20.11-15.14,26.96h24.41c.57,0,1.12-.25,1.48-.69l2.88-3.44,3.52,2.94Z"/>
        <g id="bag">
          <path class="cls-1" d="M125.9,33.81l-19.98,11.52c-.54.31-1.21.31-1.73,0l-19.98-11.52,19.98-11.54c.54-.31,1.21-.31,1.73,0l5.38,3.11-6.25,3.61-.65-.37c-.89-.51-1.97-.51-2.86,0l-4.3,2.48c-.83.49-1.12,1.54-.64,2.37.15.26.37.49.64.64l8.47,4.9c.89.51,1.97.51,2.86,0l4.3-2.48c.83-.49,1.12-1.54.64-2.37-.15-.26-.37-.49-.64-.64l-.14-.07c-.89-.51-1.97-.51-2.86,0l-1.32.76c-.89.51-1.97.51-2.86,0l-2.73-1.61,9.56-5.52c.54-.31,1.21-.31,1.73,0l11.65,6.74Z"/>
          <path class="cls-1" d="M82.45,36.82v23.06c0,.62.33,1.19.87,1.51l19.98,11.54v-23.08c0-.62-.33-1.19-.87-1.51l-19.98-11.52ZM94.45,62.99l-5.73-3.3v-4.81l6.91,3.99c.89.51,1.43,1.46,1.43,2.47v.15c0,.96-.78,1.73-1.73,1.73-.32,0-.61-.08-.87-.24h0ZM88.71,50.07v-4.81l6.91,3.99c.89.51,1.43,1.46,1.43,2.47v.15c0,.96-.78,1.73-1.73,1.73-.31,0-.61-.08-.87-.24l-5.73-3.3Z"/>
          <path class="cls-1" d="M106.79,49.86v23.06l5.38-3.11c.54-.31.87-.89.87-1.51v-4.58c0-1.03.54-1.97,1.43-2.47l4.3-2.48c.83-.49,1.9-.19,2.37.64.15.26.24.57.24.87v4.2l5.38-3.11c.54-.31.87-.89.87-1.51v-23.05l-19.98,11.54c-.53.31-.86.87-.86,1.5ZM113.05,54.27v-2.57c0-1.03.54-1.97,1.43-2.47l4.3-2.48c.83-.49,1.9-.19,2.37.64.15.26.24.57.24.87v2.57c0,1.03-.54,1.97-1.43,2.47l-4.3,2.48c-.83.49-1.9.19-2.37-.64-.15-.26-.24-.57-.24-.87Z"/>
        </g>
      </g>
    </g>
  </g>
</svg>