<?xml version="1.0" encoding="utf-8"?>
<!-- Generator: Adobe Illustrator 26.0.1, SVG Export Plug-In . SVG Version: 6.00 Build 0)  -->
<svg version="1.1" id="bit_logo_1_" xmlns="http://www.w3.org/2000/svg" xmlns:xlink="http://www.w3.org/1999/xlink" x="0px"
	 y="0px" viewBox="0 0 1024 1024" style="enable-background:new 0 0 1024 1024;" xml:space="preserve">
<style type="text/css">
	.st0{fill:#00008B;}
	.st1{fill:#B8860B;}
</style>
<g id="bit_logo">
	<g id="stay_ahead">
		<path class="st0" d="M250.9,754.6v32.1h-2.5c-0.8-6.2-2.3-11.1-4.4-14.7c-2.2-3.7-5.3-6.7-9.1-8.7c-3.7-2.1-7.9-3.2-12.2-3.2
			c-4.3-0.1-8.6,1.4-11.8,4.3c-2.9,2.5-4.6,6.1-4.6,9.9c0,2.8,1.1,5.6,2.9,7.7c2.8,3.4,9.5,8,20.2,13.7c8.7,4.7,14.6,8.2,17.7,10.7
			c3.1,2.4,5.6,5.4,7.3,8.8c1.7,3.3,2.6,6.9,2.6,10.6c0,7-2.7,13.1-8.2,18.2c-5.4,5.1-12.4,7.6-21,7.6c-2.5,0-5.1-0.2-7.6-0.6
			c-3-0.7-5.9-1.5-8.8-2.5c-4.4-1.4-7.3-2.1-8.4-2.2c-1-0.1-2,0.3-2.7,1s-1.1,2.1-1.5,4.2h-2.4v-31.8h2.5c1.2,6.7,2.8,11.6,4.8,14.9
			c2.3,3.5,5.4,6.4,9.2,8.2c4.2,2.2,8.8,3.3,13.6,3.3c5.7,0,10.2-1.5,13.5-4.5c3.2-2.6,5-6.5,5-10.7c0-2.4-0.7-4.8-1.9-6.9
			c-1.5-2.6-3.5-4.8-5.8-6.5c-1.8-1.4-6.6-4.3-14.6-8.7s-13.6-8-16.9-10.6c-3.1-2.4-5.7-5.3-7.6-8.8c-1.7-3.2-2.6-6.9-2.6-10.5
			c0-6.6,2.7-12.8,7.6-17.2c5.1-4.8,11.6-7.2,19.5-7.2c5.4,0.1,10.7,1.3,15.6,3.6c1.7,0.9,3.5,1.5,5.4,1.7c1.1,0,2.1-0.3,2.9-1.1
			c0.8-0.7,1.4-2.1,1.8-4.3h2.5V754.6z"/>
		<path class="st0" d="M287.1,766.2v20.6h14.6v4.8h-14.6v40.6c0,4,0.6,6.8,1.7,8.2s2.7,2.2,4.5,2.1c1.6,0,3.1-0.5,4.4-1.4
			c1.5-1,2.6-2.5,3.3-4.1h2.7c-1.6,4.5-3.9,7.8-6.8,10.1c-2.5,2.1-5.7,3.3-9,3.4c-2.2,0-4.3-0.6-6.1-1.7c-2-1.1-3.5-2.9-4.4-5
			c-0.9-2.2-1.4-5.5-1.4-10v-42.1h-9.9v-2.2c2.8-1.2,5.4-3,7.7-5.1c2.7-2.5,5.1-5.4,7-8.5c1.7-3.1,3.1-6.2,4.4-9.5L287.1,766.2z"/>
		<path class="st0" d="M343.2,840.4c-6.4,5-10.5,7.8-12.1,8.6c-2.5,1.1-5.1,1.7-7.9,1.7c-4,0.1-7.9-1.5-10.7-4.4
			c-2.8-3-4.2-6.9-4.2-11.7c-0.1-2.8,0.6-5.5,2-7.9c1.9-3.1,5.1-6,9.7-8.8c4.6-2.7,12.3-6.1,23.1-10v-2.4c0-6.2-1-10.5-3-12.8
			s-4.9-3.5-8.6-3.5c-2.5-0.1-4.9,0.7-6.8,2.3c-1.6,1.3-2.6,3.3-2.6,5.3l0.1,4c0.1,1.8-0.5,3.5-1.6,4.9c-1.1,1.1-2.6,1.8-4.2,1.7
			c-1.6,0-3.1-0.6-4.1-1.8c-1.1-1.4-1.7-3.1-1.6-4.9c0-3.9,2-7.5,6-10.8s9.6-4.9,16.9-4.9c5.6,0,10.1,0.9,13.7,2.8
			c2.7,1.4,4.9,3.8,6,6.6c0.8,2,1.2,6,1.2,12v21.3c-0.1,3.7,0,7.3,0.3,11c0.1,1,0.5,1.9,1.1,2.7c0.5,0.4,1.1,0.7,1.8,0.7
			c0.7,0,1.3-0.1,1.9-0.5c2-1.5,3.8-3.2,5.5-5v3.8c-5.1,6.8-10,10.3-14.6,10.3c-2,0.1-4-0.8-5.3-2.3
			C344,846.8,343.4,844.1,343.2,840.4z M343.2,835.9V812c-4.5,1.7-9,3.6-13.3,5.8c-3,1.5-5.6,3.7-7.7,6.3c-1.5,2.1-2.3,4.6-2.3,7.2
			c-0.1,3,1,5.9,2.9,8.2c1.7,2,4.1,3.2,6.8,3.2C333.1,842.8,337.6,840.5,343.2,835.9z"/>
		<path class="st0" d="M366.4,786.8h29.2v2.5h-1.5c-1.6-0.1-3.3,0.3-4.6,1.3c-1,0.8-1.6,2-1.5,3.3c0,1.8,0.8,4.2,2.2,7.4l15.2,31.6
			l14-34.6c0.7-1.8,1.1-3.6,1.2-5.5c0-0.6-0.1-1.3-0.5-1.8c-0.4-0.6-1-1-1.7-1.2c-1.3-0.4-2.7-0.5-4.1-0.4v-2.5h20.4v2.5
			c-1.4,0.1-2.7,0.5-3.9,1.1c-1.2,0.8-2.2,1.9-3,3.1c-0.9,1.7-1.7,3.5-2.3,5.3L400,861.4c-2.5,6.1-5.7,10.6-9.7,13.7
			c-4,3.1-7.8,4.7-11.5,4.7c-2.4,0.1-4.8-0.7-6.6-2.3c-1.6-1.3-2.6-3.3-2.6-5.3c-0.1-1.7,0.6-3.4,1.9-4.6c1.4-1.2,3.3-1.8,5.2-1.7
			c2.1,0.1,4.2,0.7,6.1,1.5c1.1,0.5,2.2,0.8,3.4,1c1.7-0.1,3.3-0.9,4.5-2.1c1.6-1.4,3.2-4.2,4.9-8.2l4.5-10.9l-22.6-47.5
			c-1-1.8-2-3.6-3.3-5.3c-0.8-1.2-1.7-2.3-2.8-3.2c-1.6-0.9-3.3-1.6-5.1-1.9L366.4,786.8z"/>
		<path class="st0" d="M526.9,818.4H491l-6.3,14.6c-1.6,3.6-2.3,6.3-2.3,8.1c0,1.5,0.8,2.9,2,3.7c1.3,1.1,4.2,1.8,8.7,2.1v2.5h-29.2
			v-2.5c3.9-0.7,6.4-1.6,7.5-2.7c2.3-2.2,4.9-6.6,7.7-13.3l32.6-76.3h2.4l32.3,77.1c2.6,6.2,5,10.2,7.1,12.1s5.1,2.9,8.8,3.1v2.5
			h-36.6v-2.5c3.7-0.2,6.2-0.8,7.5-1.8c1.2-0.9,2-2.3,2-3.8c0-2-0.9-5.2-2.7-9.5L526.9,818.4z M525,813.3l-15.7-37.5L493,813.3H525z
			"/>
		<path class="st0" d="M586.7,752.2V798c5-5.6,9-9.1,12-10.7c2.7-1.5,5.8-2.3,8.9-2.4c3.3-0.1,6.5,1,9.2,2.9c2.6,2,4.5,5,5.7,9.2
			c0.9,2.9,1.3,8.3,1.3,16v22.1c0,4,0.3,6.7,1,8.1c0.5,1.1,1.3,2,2.3,2.6c1.1,0.6,3.1,1,6,1v2.5h-30.8v-2.5h1.4
			c2.9,0,4.9-0.4,6.1-1.3c1.2-1,2.1-2.4,2.4-3.9c0.2-2.1,0.3-4.3,0.2-6.4V813c0-6.8-0.4-11.3-1.1-13.5c-0.6-1.9-1.8-3.6-3.4-4.8
			c-1.7-1.1-3.6-1.7-5.6-1.6c-2.4,0-4.8,0.7-7,1.8c-2.4,1.2-5.3,3.6-8.7,7.2v33.1c0,4.3,0.2,7,0.7,8c0.6,1.1,1.5,2.1,2.7,2.6
			c1.3,0.7,3.5,1.1,6.7,1.1v2.5h-31v-2.5c2.3,0.1,4.5-0.3,6.6-1.3c1-0.6,1.8-1.5,2.2-2.6c0.5-1.3,0.8-3.9,0.8-7.8v-56.7
			c0-7.2-0.2-11.5-0.5-13.2c-0.2-1.3-0.7-2.4-1.6-3.3c-0.8-0.6-1.8-0.9-2.8-0.9c-1.6,0.1-3.2,0.5-4.7,1.1l-1-2.4l18.7-7.7
			L586.7,752.2z"/>
		<path class="st0" d="M648.9,810.4c0,9.3,2.2,16.6,6.8,21.9s9.9,7.9,16.1,7.9c3.8,0.1,7.6-1.1,10.7-3.4c3-2.2,5.6-6.1,7.6-11.6
			l2.1,1.4c-1,6.4-3.9,12.3-8.3,17.1c-4.3,5-10.7,7.8-17.3,7.7c-7.5,0-14-2.9-19.3-8.8c-5.4-5.9-8-13.7-8-23.6
			c0-10.7,2.7-19.1,8.2-25.1c5.2-5.9,12.8-9.2,20.7-9c7,0,12.8,2.3,17.3,6.9c4.5,4.6,6.8,10.8,6.7,18.6L648.9,810.4L648.9,810.4z
			 M648.9,806.4h29c-0.2-4-0.7-6.8-1.4-8.5c-1.1-2.5-2.8-4.5-5.1-6c-2.1-1.4-4.6-2.2-7.1-2.2c-3.8,0-7.5,1.6-10.1,4.4
			C651.1,797.1,649.4,801.2,648.9,806.4L648.9,806.4z"/>
		<path class="st0" d="M736,840.4c-6.4,5-10.5,7.8-12.1,8.6c-2.5,1.1-5.1,1.7-7.9,1.7c-4,0.1-7.9-1.5-10.7-4.4
			c-2.8-3-4.2-6.9-4.2-11.7c-0.1-2.8,0.6-5.5,2-7.9c1.9-3.1,5.1-6,9.7-8.8c4.6-2.7,12.3-6.1,23.1-10v-2.4c0-6.2-1-10.5-3-12.8
			s-4.9-3.5-8.7-3.5c-2.5-0.1-4.9,0.7-6.8,2.3c-1.6,1.3-2.6,3.3-2.6,5.3l0.1,4c0.1,1.8-0.5,3.5-1.6,4.9c-1.1,1.1-2.6,1.8-4.2,1.7
			c-1.6,0-3-0.7-4-1.9c-1.1-1.4-1.7-3.1-1.6-4.9c0-3.9,2-7.5,6-10.8s9.6-4.9,16.9-4.9c5.6,0,10.1,0.9,13.7,2.8
			c2.7,1.4,4.8,3.8,5.9,6.6c0.8,2,1.2,6,1.2,12v21.3c-0.1,3.7,0,7.3,0.3,11c0.1,1,0.5,1.9,1.1,2.7c0.5,0.4,1.1,0.7,1.8,0.7
			s1.3-0.2,1.9-0.5c2-1.5,3.8-3.2,5.5-5v3.8c-5.1,6.8-10,10.3-14.6,10.3c-2,0.1-4-0.8-5.3-2.3C736.7,846.8,736,844.1,736,840.4z
			 M736,835.9V812c-4.5,1.7-9,3.6-13.3,5.8c-3,1.5-5.6,3.7-7.7,6.3c-1.5,2.1-2.3,4.6-2.3,7.2c-0.1,3,1,5.9,2.9,8.2
			c1.7,2,4.1,3.2,6.8,3.2C725.8,842.8,730.3,840.5,736,835.9z"/>
		<path class="st0" d="M806.9,842.4c-2.6,2.8-5.6,5.1-9,6.9c-2.9,1.4-6.2,2.1-9.4,2.1c-6.8,0-12.8-2.9-17.9-8.6s-7.7-13.1-7.7-22
			s3-17.6,8.5-24.6c5.6-7.4,12.9-11.2,21.8-11.2c5.1-0.2,10,1.7,13.7,5.3v-11.6c0-7.2-0.2-11.5-0.5-13.2c-0.1-1.3-0.7-2.4-1.6-3.3
			c-0.8-0.6-1.7-0.9-2.7-0.9c-1.6,0.1-3.2,0.5-4.7,1.1l-0.9-2.4l18.7-7.7h3.1v72.4c0,7.3,0.2,11.8,0.5,13.4c0.2,1.3,0.8,2.5,1.7,3.4
			c0.7,0.6,1.7,1,2.6,1c1.7-0.1,3.4-0.5,4.9-1.2l0.8,2.4l-18.6,7.7h-3.2L806.9,842.4L806.9,842.4z M806.9,837.6v-32.3
			c-0.2-3-1.1-5.8-2.5-8.5c-1.2-2.4-3.1-4.4-5.4-5.8c-2-1.2-4.3-1.9-6.6-2c-4,0-7.6,1.8-10.7,5.4c-4.1,4.7-6.2,11.7-6.2,20.8
			s2,16.2,6,21.2c4,4.9,8.5,7.3,13.4,7.3C799,843.8,803,841.7,806.9,837.6L806.9,837.6z"/>
	</g>
	<path id="line" class="st0" d="M976.2,702.1H47.8c-1.4,0-2.5-1.1-2.5-2.5s1.1-2.5,2.5-2.5h928.4c1.4,0,2.5,1.1,2.5,2.5
		S977.6,702.1,976.2,702.1z"/>
	<g id="color">
		<g id="omega">
			<path class="st0" d="M1000.6,602.5l-33.3,39.6c-2.7,3.2-6.6,5-10.7,5H653.1c72.6-47.6,116.3-128.6,116.4-215.4
				c0-142.2-115.3-257.5-257.5-257.5S254.5,289.5,254.5,431.7c0,86.8,43.8,167.8,116.4,215.4H67.4c-4.1,0-8.1-1.8-10.7-5l-33.3-39.6
				l25.3-21.2l20.8,24.8c2.7,3.2,6.6,5,10.7,5h176.1c-67.4-49.4-109.2-118.3-109.2-194.4C147,266.2,310.4,144.2,512,144.2
				s365,122,365,272.5c0,76.1-41.8,145-109.2,194.4h176c4.1,0,8.1-1.8,10.7-5l20.8-24.8L1000.6,602.5z"/>
		</g>
		<g id="bag">
			<path class="st1" d="M662.4,318l-144.1,83.1c-3.9,2.2-8.7,2.2-12.5,0L361.6,318l144.1-83.2c3.9-2.2,8.7-2.2,12.5,0l38.8,22.4
				l-45.1,26l-4.7-2.7c-6.4-3.7-14.2-3.7-20.6,0l-31,17.9c-6,3.5-8.1,11.1-4.6,17.1c1.1,1.9,2.7,3.5,4.6,4.6l61.1,35.3
				c6.4,3.7,14.2,3.7,20.6,0l31-17.9c6-3.5,8.1-11.1,4.6-17.1c-1.1-1.9-2.7-3.5-4.6-4.6l-1-0.5c-6.4-3.7-14.2-3.7-20.6,0l-9.5,5.5
				c-6.4,3.7-14.2,3.7-20.6,0L497,309.2l68.9-39.8c3.9-2.2,8.7-2.2,12.5,0L662.4,318z"/>
			<path class="st1" d="M349.1,339.7V506c0,4.5,2.4,8.6,6.3,10.9l144.1,83.2V433.7c0-4.5-2.4-8.6-6.3-10.9L349.1,339.7z
				 M435.6,528.4l-41.3-23.8v-34.7l49.8,28.8c6.4,3.7,10.3,10.5,10.3,17.8v1.1c0,6.9-5.6,12.5-12.5,12.5
				C439.6,530.1,437.5,529.5,435.6,528.4L435.6,528.4z M394.1,435.2v-34.7l49.8,28.8c6.4,3.7,10.3,10.5,10.3,17.8v1.1
				c0,6.9-5.6,12.5-12.5,12.5c-2.2,0-4.4-0.6-6.3-1.7L394.1,435.2z"/>
			<path class="st1" d="M524.6,433.7V600l38.8-22.4c3.9-2.2,6.3-6.4,6.3-10.9v-33c0-7.4,3.9-14.2,10.3-17.8l31-17.9
				c6-3.5,13.7-1.4,17.1,4.6c1.1,1.9,1.7,4.1,1.7,6.3v30.3l38.8-22.4c3.9-2.2,6.3-6.4,6.3-10.9V339.7l-144.1,83.2
				C527,425.1,524.6,429.2,524.6,433.7z M569.7,465.5V447c0-7.4,3.9-14.2,10.3-17.8l31-17.9c6-3.5,13.7-1.4,17.1,4.6
				c1.1,1.9,1.7,4.1,1.7,6.3v18.5c0,7.4-3.9,14.2-10.3,17.8l-31,17.9c-6,3.5-13.7,1.4-17.1-4.6C570.3,469.9,569.7,467.7,569.7,465.5
				z"/>
		</g>
	</g>
</g>
</svg>
